%TF.GenerationSoftware,KiCad,Pcbnew,9.0.1+dfsg-1*%
%TF.CreationDate,2025-04-15T15:49:20+02:00*%
%TF.ProjectId,VCM-addon-pcb,56434d2d-6164-4646-9f6e-2d7063622e6b,rev?*%
%TF.SameCoordinates,Original*%
%TF.FileFunction,Copper,L1,Top*%
%TF.FilePolarity,Positive*%
%FSLAX46Y46*%
G04 Gerber Fmt 4.6, Leading zero omitted, Abs format (unit mm)*
G04 Created by KiCad (PCBNEW 9.0.1+dfsg-1) date 2025-04-15 15:49:20*
%MOMM*%
%LPD*%
G01*
G04 APERTURE LIST*
G04 Aperture macros list*
%AMRoundRect*
0 Rectangle with rounded corners*
0 $1 Rounding radius*
0 $2 $3 $4 $5 $6 $7 $8 $9 X,Y pos of 4 corners*
0 Add a 4 corners polygon primitive as box body*
4,1,4,$2,$3,$4,$5,$6,$7,$8,$9,$2,$3,0*
0 Add four circle primitives for the rounded corners*
1,1,$1+$1,$2,$3*
1,1,$1+$1,$4,$5*
1,1,$1+$1,$6,$7*
1,1,$1+$1,$8,$9*
0 Add four rect primitives between the rounded corners*
20,1,$1+$1,$2,$3,$4,$5,0*
20,1,$1+$1,$4,$5,$6,$7,0*
20,1,$1+$1,$6,$7,$8,$9,0*
20,1,$1+$1,$8,$9,$2,$3,0*%
G04 Aperture macros list end*
%TA.AperFunction,SMDPad,CuDef*%
%ADD10RoundRect,0.225000X0.225000X0.250000X-0.225000X0.250000X-0.225000X-0.250000X0.225000X-0.250000X0*%
%TD*%
%TA.AperFunction,SMDPad,CuDef*%
%ADD11RoundRect,0.225000X-0.225000X-0.250000X0.225000X-0.250000X0.225000X0.250000X-0.225000X0.250000X0*%
%TD*%
%TA.AperFunction,SMDPad,CuDef*%
%ADD12R,0.806066X0.256842*%
%TD*%
%TA.AperFunction,SMDPad,CuDef*%
%ADD13R,1.000000X1.699999*%
%TD*%
%TA.AperFunction,ComponentPad*%
%ADD14R,1.700000X1.700000*%
%TD*%
%TA.AperFunction,ComponentPad*%
%ADD15O,1.700000X1.700000*%
%TD*%
%TA.AperFunction,ViaPad*%
%ADD16C,0.600000*%
%TD*%
%TA.AperFunction,ViaPad*%
%ADD17C,2.600000*%
%TD*%
%TA.AperFunction,Conductor*%
%ADD18C,0.200000*%
%TD*%
G04 APERTURE END LIST*
D10*
%TO.P,C4,1*%
%TO.N,Net-(U1-GND)*%
X138050000Y-111500000D03*
%TO.P,C4,2*%
%TO.N,GNDREF*%
X136500000Y-111500000D03*
%TD*%
D11*
%TO.P,C3,1*%
%TO.N,unconnected-(C3-Pad1)*%
X136500000Y-104500000D03*
%TO.P,C3,2*%
%TO.N,Net-(U1-VCC)*%
X138050000Y-104500000D03*
%TD*%
%TO.P,C2,1*%
%TO.N,GNDREF*%
X136450000Y-107000000D03*
%TO.P,C2,2*%
%TO.N,Net-(U1-VM)*%
X138000000Y-107000000D03*
%TD*%
D12*
%TO.P,U1,1,VM*%
%TO.N,Net-(U1-VM)*%
X140893934Y-109000001D03*
%TO.P,U1,2,OUT1*%
%TO.N,VCM -*%
X140893934Y-109499999D03*
%TO.P,U1,3,OUT2*%
%TO.N,VCM +*%
X140893934Y-109999999D03*
%TO.P,U1,4,GND*%
%TO.N,Net-(U1-GND)*%
X140893934Y-110500000D03*
%TO.P,U1,5,IN2_EN*%
%TO.N,PWM_EN*%
X143000000Y-110500000D03*
%TO.P,U1,6,IN1_PH*%
%TO.N,PWM_PH*%
X143000000Y-109999999D03*
%TO.P,U1,7,MODE*%
%TO.N,SLEEP*%
X143000000Y-109499999D03*
%TO.P,U1,8,VCC*%
%TO.N,Net-(U1-VCC)*%
X143000000Y-109000001D03*
D13*
%TO.P,U1,9,Thermal_Pad*%
%TO.N,GNDREF*%
X141946967Y-109749999D03*
%TD*%
D14*
%TO.P,.54mm_Haaks,1*%
%TO.N,GNDREF*%
X136600000Y-128140000D03*
D15*
%TO.P,.54mm_Haaks,2*%
%TO.N,PWM_PH*%
X136600000Y-125600000D03*
%TO.P,.54mm_Haaks,3*%
%TO.N,PWM_EN*%
X136600000Y-123060000D03*
%TO.P,.54mm_Haaks,4*%
%TO.N,SLEEP*%
X136600000Y-120520000D03*
%TO.P,.54mm_Haaks,5*%
%TO.N,GNDREF*%
X136600000Y-117980000D03*
%TO.P,.54mm_Haaks,6*%
%TO.N,Net-(U1-VCC)*%
X136600000Y-115440000D03*
%TD*%
D16*
%TO.N,GNDREF*%
X140475000Y-111600000D03*
X141975000Y-109725000D03*
D17*
%TO.N,VCM -*%
X143900000Y-114000000D03*
D16*
%TO.N,Net-(U1-VCC)*%
X131500000Y-104500000D03*
%TO.N,VCM -*%
X138500000Y-109500000D03*
D17*
X162050000Y-118875000D03*
D16*
%TO.N,VCM +*%
X138500000Y-110500000D03*
D17*
X143732114Y-118961986D03*
X162150000Y-113875000D03*
D16*
%TO.N,PWM_EN*%
X131500000Y-109000000D03*
%TO.N,SLEEP*%
X131500000Y-107500000D03*
%TO.N,PWM_PH*%
X131500000Y-110500000D03*
%TO.N,GNDREF*%
X131500000Y-106000000D03*
%TD*%
D18*
%TO.N,GNDREF*%
X141146965Y-111600000D02*
X140475000Y-111600000D01*
X141946967Y-110799998D02*
X141146965Y-111600000D01*
X141946967Y-109749999D02*
X141946967Y-110799998D01*
X141950001Y-109749999D02*
X141975000Y-109725000D01*
X141946967Y-109749999D02*
X141950001Y-109749999D01*
%TO.N,Net-(U1-VM)*%
X138000000Y-107000000D02*
X138893933Y-107000000D01*
X138893933Y-107000000D02*
X140893934Y-109000001D01*
%TO.N,Net-(U1-VCC)*%
X136225000Y-104500000D02*
X131500000Y-104500000D01*
X143000000Y-108225000D02*
X143000000Y-109000001D01*
X139275000Y-104500000D02*
X143000000Y-108225000D01*
X137775000Y-104500000D02*
X139275000Y-104500000D01*
%TO.N,VCM -*%
X141000000Y-109500000D02*
X138500000Y-109500000D01*
X140893934Y-109499999D02*
X140999999Y-109499999D01*
X140999999Y-109499999D02*
X141000000Y-109500000D01*
%TO.N,Net-(U1-GND)*%
X138500000Y-111500000D02*
X139500000Y-110500000D01*
X139500000Y-110500000D02*
X140893934Y-110500000D01*
X138050000Y-111500000D02*
X138500000Y-111500000D01*
%TO.N,VCM +*%
X139000001Y-109999999D02*
X138500000Y-110500000D01*
X140893934Y-109999999D02*
X139000001Y-109999999D01*
%TO.N,PWM_EN*%
X141000000Y-112500000D02*
X143000000Y-110500000D01*
X131500000Y-109500000D02*
X134500000Y-112500000D01*
X131500000Y-109000000D02*
X131500000Y-109500000D01*
X134500000Y-112500000D02*
X141000000Y-112500000D01*
%TO.N,SLEEP*%
X143000000Y-109499999D02*
X144105033Y-109500000D01*
X144105033Y-109500000D02*
X144105033Y-111394967D01*
X144105033Y-111394967D02*
X142000000Y-113500000D01*
X142000000Y-113500000D02*
X131500000Y-113500000D01*
X130500000Y-108500000D02*
X131500000Y-107500000D01*
X130500000Y-112500000D02*
X130500000Y-108500000D01*
X131500000Y-113500000D02*
X130500000Y-112500000D01*
%TO.N,PWM_PH*%
X131500000Y-111000000D02*
X133500000Y-113000000D01*
X143636934Y-110070579D02*
X143000000Y-110070579D01*
X133500000Y-113000000D02*
X141602016Y-113000000D01*
X141602016Y-113000000D02*
X143672595Y-110929421D01*
X143672595Y-110929421D02*
X143704033Y-110929421D01*
X143000000Y-109999999D02*
X143000000Y-110000000D01*
X143704033Y-110929421D02*
X143704033Y-110500000D01*
X143704033Y-110929421D02*
X143704033Y-110137678D01*
X131500000Y-110500000D02*
X131500000Y-111000000D01*
X143000000Y-110070579D02*
X143000000Y-109999999D01*
X143704033Y-110137678D02*
X143636934Y-110070579D01*
%TO.N,GNDREF*%
X136500000Y-111500000D02*
X136500000Y-110937925D01*
X131562075Y-106000000D02*
X131500000Y-106000000D01*
X136600000Y-128140000D02*
X130099000Y-121639000D01*
X130099000Y-121639000D02*
X130099000Y-108051057D01*
X131251057Y-106899000D02*
X131899000Y-106899000D01*
X130099000Y-108051057D02*
X131251057Y-106899000D01*
X136500000Y-110937925D02*
X131562075Y-106000000D01*
X131899000Y-106899000D02*
X136500000Y-111500000D01*
X135450000Y-106000000D02*
X131500000Y-106000000D01*
X136450000Y-107000000D02*
X135450000Y-106000000D01*
%TD*%
%TA.AperFunction,Conductor*%
%TO.N,GNDREF*%
G36*
X165967539Y-103220185D02*
G01*
X166013294Y-103272989D01*
X166024500Y-103324500D01*
X166024500Y-130625500D01*
X166004815Y-130692539D01*
X165952011Y-130738294D01*
X165900500Y-130749500D01*
X130099500Y-130749500D01*
X130032461Y-130729815D01*
X129986706Y-130677011D01*
X129975500Y-130625500D01*
X129975500Y-113124097D01*
X129995185Y-113057058D01*
X130047989Y-113011303D01*
X130117147Y-113001359D01*
X130180703Y-113030384D01*
X130187180Y-113036415D01*
X131131284Y-113980520D01*
X131131286Y-113980521D01*
X131131290Y-113980524D01*
X131268209Y-114059573D01*
X131268216Y-114059577D01*
X131420943Y-114100501D01*
X131420945Y-114100501D01*
X131586654Y-114100501D01*
X131586670Y-114100500D01*
X135764423Y-114100500D01*
X135831462Y-114120185D01*
X135877217Y-114172989D01*
X135887161Y-114242147D01*
X135858136Y-114305703D01*
X135837310Y-114324816D01*
X135799882Y-114352010D01*
X135720207Y-114409896D01*
X135569890Y-114560213D01*
X135444951Y-114732179D01*
X135348444Y-114921585D01*
X135282753Y-115123760D01*
X135272309Y-115189704D01*
X135249500Y-115333713D01*
X135249500Y-115546287D01*
X135282754Y-115756243D01*
X135297133Y-115800498D01*
X135348444Y-115958414D01*
X135444951Y-116147820D01*
X135569890Y-116319786D01*
X135720213Y-116470109D01*
X135892179Y-116595048D01*
X135892181Y-116595049D01*
X135892184Y-116595051D01*
X135901493Y-116599794D01*
X135952290Y-116647766D01*
X135969087Y-116715587D01*
X135946552Y-116781722D01*
X135901502Y-116820762D01*
X135892443Y-116825378D01*
X135720540Y-116950272D01*
X135720535Y-116950276D01*
X135570276Y-117100535D01*
X135570272Y-117100540D01*
X135445379Y-117272442D01*
X135348904Y-117461782D01*
X135283242Y-117663870D01*
X135283242Y-117663873D01*
X135272769Y-117730000D01*
X136166988Y-117730000D01*
X136134075Y-117787007D01*
X136100000Y-117914174D01*
X136100000Y-118045826D01*
X136134075Y-118172993D01*
X136166988Y-118230000D01*
X135272769Y-118230000D01*
X135283242Y-118296126D01*
X135283242Y-118296129D01*
X135348904Y-118498217D01*
X135445379Y-118687557D01*
X135570272Y-118859459D01*
X135570276Y-118859464D01*
X135720535Y-119009723D01*
X135720540Y-119009727D01*
X135892444Y-119134622D01*
X135901495Y-119139234D01*
X135952292Y-119187208D01*
X135969087Y-119255029D01*
X135946550Y-119321164D01*
X135901499Y-119360202D01*
X135892182Y-119364949D01*
X135720213Y-119489890D01*
X135569890Y-119640213D01*
X135444951Y-119812179D01*
X135348444Y-120001585D01*
X135282753Y-120203760D01*
X135249500Y-120413713D01*
X135249500Y-120626286D01*
X135282753Y-120836239D01*
X135348444Y-121038414D01*
X135444951Y-121227820D01*
X135569890Y-121399786D01*
X135720213Y-121550109D01*
X135892182Y-121675050D01*
X135900946Y-121679516D01*
X135951742Y-121727491D01*
X135968536Y-121795312D01*
X135945998Y-121861447D01*
X135900946Y-121900484D01*
X135892182Y-121904949D01*
X135720213Y-122029890D01*
X135569890Y-122180213D01*
X135444951Y-122352179D01*
X135348444Y-122541585D01*
X135282753Y-122743760D01*
X135265847Y-122850500D01*
X135249500Y-122953713D01*
X135249500Y-123166287D01*
X135282754Y-123376243D01*
X135294805Y-123413333D01*
X135348444Y-123578414D01*
X135444951Y-123767820D01*
X135569890Y-123939786D01*
X135720213Y-124090109D01*
X135892182Y-124215050D01*
X135900946Y-124219516D01*
X135951742Y-124267491D01*
X135968536Y-124335312D01*
X135945998Y-124401447D01*
X135900946Y-124440484D01*
X135892182Y-124444949D01*
X135720213Y-124569890D01*
X135569890Y-124720213D01*
X135444951Y-124892179D01*
X135348444Y-125081585D01*
X135282753Y-125283760D01*
X135249500Y-125493713D01*
X135249500Y-125706286D01*
X135282753Y-125916239D01*
X135348444Y-126118414D01*
X135444951Y-126307820D01*
X135569890Y-126479786D01*
X135683818Y-126593714D01*
X135717303Y-126655037D01*
X135712319Y-126724729D01*
X135670447Y-126780662D01*
X135639471Y-126797577D01*
X135507912Y-126846646D01*
X135507906Y-126846649D01*
X135392812Y-126932809D01*
X135392809Y-126932812D01*
X135306649Y-127047906D01*
X135306645Y-127047913D01*
X135256403Y-127182620D01*
X135256401Y-127182627D01*
X135250000Y-127242155D01*
X135250000Y-127890000D01*
X136166988Y-127890000D01*
X136134075Y-127947007D01*
X136100000Y-128074174D01*
X136100000Y-128205826D01*
X136134075Y-128332993D01*
X136166988Y-128390000D01*
X135250000Y-128390000D01*
X135250000Y-129037844D01*
X135256401Y-129097372D01*
X135256403Y-129097379D01*
X135306645Y-129232086D01*
X135306649Y-129232093D01*
X135392809Y-129347187D01*
X135392812Y-129347190D01*
X135507906Y-129433350D01*
X135507913Y-129433354D01*
X135642620Y-129483596D01*
X135642627Y-129483598D01*
X135702155Y-129489999D01*
X135702172Y-129490000D01*
X136350000Y-129490000D01*
X136350000Y-128573012D01*
X136407007Y-128605925D01*
X136534174Y-128640000D01*
X136665826Y-128640000D01*
X136792993Y-128605925D01*
X136850000Y-128573012D01*
X136850000Y-129490000D01*
X137497828Y-129490000D01*
X137497844Y-129489999D01*
X137557372Y-129483598D01*
X137557379Y-129483596D01*
X137692086Y-129433354D01*
X137692093Y-129433350D01*
X137807187Y-129347190D01*
X137807190Y-129347187D01*
X137893350Y-129232093D01*
X137893354Y-129232086D01*
X137943596Y-129097379D01*
X137943598Y-129097372D01*
X137949999Y-129037844D01*
X137950000Y-129037827D01*
X137950000Y-128390000D01*
X137033012Y-128390000D01*
X137065925Y-128332993D01*
X137100000Y-128205826D01*
X137100000Y-128074174D01*
X137065925Y-127947007D01*
X137033012Y-127890000D01*
X137950000Y-127890000D01*
X137950000Y-127242172D01*
X137949999Y-127242155D01*
X137943598Y-127182627D01*
X137943596Y-127182620D01*
X137893354Y-127047913D01*
X137893350Y-127047906D01*
X137872062Y-127019469D01*
X137819475Y-126949223D01*
X144399500Y-126949223D01*
X144399500Y-127250776D01*
X144399501Y-127250793D01*
X144438861Y-127549766D01*
X144516913Y-127841060D01*
X144632314Y-128119661D01*
X144632318Y-128119671D01*
X144783099Y-128380831D01*
X144966679Y-128620078D01*
X144966685Y-128620085D01*
X145179914Y-128833314D01*
X145179921Y-128833320D01*
X145419168Y-129016900D01*
X145680328Y-129167681D01*
X145680329Y-129167681D01*
X145680332Y-129167683D01*
X145835815Y-129232086D01*
X145958939Y-129283086D01*
X145958940Y-129283086D01*
X145958942Y-129283087D01*
X146250232Y-129361138D01*
X146549217Y-129400500D01*
X146549224Y-129400500D01*
X146850776Y-129400500D01*
X146850783Y-129400500D01*
X147149768Y-129361138D01*
X147441058Y-129283087D01*
X147719668Y-129167683D01*
X147980832Y-129016900D01*
X148220080Y-128833319D01*
X148433319Y-128620080D01*
X148616900Y-128380832D01*
X148767683Y-128119668D01*
X148883087Y-127841058D01*
X148961138Y-127549768D01*
X149000500Y-127250783D01*
X149000500Y-126949217D01*
X148961138Y-126650232D01*
X148883087Y-126358942D01*
X148767683Y-126080332D01*
X148738445Y-126029691D01*
X148616900Y-125819168D01*
X148433320Y-125579921D01*
X148433314Y-125579914D01*
X148220085Y-125366685D01*
X148220078Y-125366679D01*
X147980831Y-125183099D01*
X147719671Y-125032318D01*
X147719661Y-125032314D01*
X147441060Y-124916913D01*
X147149766Y-124838861D01*
X146850793Y-124799501D01*
X146850788Y-124799500D01*
X146850783Y-124799500D01*
X146549217Y-124799500D01*
X146549211Y-124799500D01*
X146549206Y-124799501D01*
X146250233Y-124838861D01*
X145958939Y-124916913D01*
X145680338Y-125032314D01*
X145680328Y-125032318D01*
X145419168Y-125183099D01*
X145179921Y-125366679D01*
X145179914Y-125366685D01*
X144966685Y-125579914D01*
X144966679Y-125579921D01*
X144783099Y-125819168D01*
X144632318Y-126080328D01*
X144632314Y-126080338D01*
X144516913Y-126358939D01*
X144438861Y-126650233D01*
X144399501Y-126949206D01*
X144399500Y-126949223D01*
X137819475Y-126949223D01*
X137807190Y-126932812D01*
X137807187Y-126932809D01*
X137692093Y-126846649D01*
X137692088Y-126846646D01*
X137560528Y-126797577D01*
X137504595Y-126755705D01*
X137480178Y-126690241D01*
X137495030Y-126621968D01*
X137516175Y-126593720D01*
X137630104Y-126479792D01*
X137755051Y-126307816D01*
X137851557Y-126118412D01*
X137917246Y-125916243D01*
X137950500Y-125706287D01*
X137950500Y-125493713D01*
X137917246Y-125283757D01*
X137851557Y-125081588D01*
X137755051Y-124892184D01*
X137755049Y-124892181D01*
X137755048Y-124892179D01*
X137630109Y-124720213D01*
X137479786Y-124569890D01*
X137307820Y-124444951D01*
X137307115Y-124444591D01*
X137299054Y-124440485D01*
X137248259Y-124392512D01*
X137231463Y-124324692D01*
X137253999Y-124258556D01*
X137299054Y-124219515D01*
X137307816Y-124215051D01*
X137359745Y-124177323D01*
X137479786Y-124090109D01*
X137479788Y-124090106D01*
X137479792Y-124090104D01*
X137630104Y-123939792D01*
X137630106Y-123939788D01*
X137630109Y-123939786D01*
X137755048Y-123767820D01*
X137755047Y-123767820D01*
X137755051Y-123767816D01*
X137851557Y-123578412D01*
X137917246Y-123376243D01*
X137950500Y-123166287D01*
X137950500Y-122953713D01*
X137917246Y-122743757D01*
X137851557Y-122541588D01*
X137755051Y-122352184D01*
X137755049Y-122352181D01*
X137755048Y-122352179D01*
X137630109Y-122180213D01*
X137479786Y-122029890D01*
X137307820Y-121904951D01*
X137307115Y-121904591D01*
X137299054Y-121900485D01*
X137248259Y-121852512D01*
X137231463Y-121784692D01*
X137253999Y-121718556D01*
X137299054Y-121679515D01*
X137307816Y-121675051D01*
X137329789Y-121659086D01*
X137479786Y-121550109D01*
X137479788Y-121550106D01*
X137479792Y-121550104D01*
X137630104Y-121399792D01*
X137630106Y-121399788D01*
X137630109Y-121399786D01*
X137755048Y-121227820D01*
X137755047Y-121227820D01*
X137755051Y-121227816D01*
X137851557Y-121038412D01*
X137917246Y-120836243D01*
X137950500Y-120626287D01*
X137950500Y-120413713D01*
X137917246Y-120203757D01*
X137851557Y-120001588D01*
X137755051Y-119812184D01*
X137755049Y-119812181D01*
X137755048Y-119812179D01*
X137630109Y-119640213D01*
X137479786Y-119489890D01*
X137307817Y-119364949D01*
X137298504Y-119360204D01*
X137247707Y-119312230D01*
X137230912Y-119244409D01*
X137253449Y-119178274D01*
X137298507Y-119139232D01*
X137307558Y-119134620D01*
X137479459Y-119009727D01*
X137479464Y-119009723D01*
X137629723Y-118859464D01*
X137629727Y-118859459D01*
X137640972Y-118843981D01*
X141931614Y-118843981D01*
X141931614Y-119079990D01*
X141931615Y-119080006D01*
X141962420Y-119313996D01*
X142023508Y-119541979D01*
X142113828Y-119760031D01*
X142113833Y-119760042D01*
X142143935Y-119812179D01*
X142231841Y-119964436D01*
X142231843Y-119964439D01*
X142231844Y-119964440D01*
X142375520Y-120151683D01*
X142375526Y-120151690D01*
X142542409Y-120318573D01*
X142542415Y-120318578D01*
X142729664Y-120462259D01*
X142861032Y-120538104D01*
X142934057Y-120580266D01*
X142934062Y-120580268D01*
X142934065Y-120580270D01*
X143152121Y-120670592D01*
X143380100Y-120731679D01*
X143614103Y-120762486D01*
X143614110Y-120762486D01*
X143850118Y-120762486D01*
X143850125Y-120762486D01*
X144084128Y-120731679D01*
X144312107Y-120670592D01*
X144530163Y-120580270D01*
X144734564Y-120462259D01*
X144921813Y-120318578D01*
X145088706Y-120151685D01*
X145232387Y-119964436D01*
X145350398Y-119760035D01*
X145440720Y-119541979D01*
X145501807Y-119314000D01*
X145532614Y-119079997D01*
X145532614Y-118843975D01*
X145501807Y-118609972D01*
X145440720Y-118381993D01*
X145350398Y-118163937D01*
X145350396Y-118163934D01*
X145350394Y-118163929D01*
X145300178Y-118076954D01*
X145232387Y-117959536D01*
X145088706Y-117772287D01*
X145088701Y-117772281D01*
X144921818Y-117605398D01*
X144921811Y-117605392D01*
X144734568Y-117461716D01*
X144734567Y-117461715D01*
X144734564Y-117461713D01*
X144653071Y-117414663D01*
X144530170Y-117343705D01*
X144530159Y-117343700D01*
X144312107Y-117253380D01*
X144084124Y-117192292D01*
X143850134Y-117161487D01*
X143850131Y-117161486D01*
X143850125Y-117161486D01*
X143614103Y-117161486D01*
X143614097Y-117161486D01*
X143614093Y-117161487D01*
X143380103Y-117192292D01*
X143152120Y-117253380D01*
X142934068Y-117343700D01*
X142934057Y-117343705D01*
X142729659Y-117461716D01*
X142542416Y-117605392D01*
X142542409Y-117605398D01*
X142375526Y-117772281D01*
X142375520Y-117772288D01*
X142231844Y-117959531D01*
X142113833Y-118163929D01*
X142113828Y-118163940D01*
X142023508Y-118381992D01*
X141962420Y-118609975D01*
X141931615Y-118843965D01*
X141931614Y-118843981D01*
X137640972Y-118843981D01*
X137696878Y-118767034D01*
X137696880Y-118767031D01*
X137754623Y-118687553D01*
X137851095Y-118498217D01*
X137916757Y-118296129D01*
X137916757Y-118296126D01*
X137927231Y-118230000D01*
X137033012Y-118230000D01*
X137065925Y-118172993D01*
X137100000Y-118045826D01*
X137100000Y-117914174D01*
X137065925Y-117787007D01*
X137033012Y-117730000D01*
X137927231Y-117730000D01*
X137916757Y-117663873D01*
X137916757Y-117663870D01*
X137851095Y-117461782D01*
X137754620Y-117272442D01*
X137629727Y-117100540D01*
X137629723Y-117100535D01*
X137479464Y-116950276D01*
X137479459Y-116950272D01*
X137307555Y-116825377D01*
X137298500Y-116820763D01*
X137247706Y-116772788D01*
X137230912Y-116704966D01*
X137253451Y-116638832D01*
X137298508Y-116599793D01*
X137307816Y-116595051D01*
X137387007Y-116537515D01*
X137479786Y-116470109D01*
X137479788Y-116470106D01*
X137479792Y-116470104D01*
X137630104Y-116319792D01*
X137630106Y-116319788D01*
X137630109Y-116319786D01*
X137755048Y-116147820D01*
X137755047Y-116147820D01*
X137755051Y-116147816D01*
X137851557Y-115958412D01*
X137917246Y-115756243D01*
X137950500Y-115546287D01*
X137950500Y-115333713D01*
X137917246Y-115123757D01*
X137851557Y-114921588D01*
X137755051Y-114732184D01*
X137755049Y-114732181D01*
X137755048Y-114732179D01*
X137630109Y-114560213D01*
X137479792Y-114409896D01*
X137362691Y-114324817D01*
X137320026Y-114269489D01*
X137314047Y-114199876D01*
X137346652Y-114138080D01*
X137407491Y-114103723D01*
X137435577Y-114100500D01*
X141913333Y-114100500D01*
X141920939Y-114100500D01*
X141920943Y-114100501D01*
X141988452Y-114100501D01*
X142055491Y-114120186D01*
X142101245Y-114172991D01*
X142101245Y-114172995D01*
X142111388Y-114208315D01*
X142115843Y-114242147D01*
X142126726Y-114324819D01*
X142130307Y-114352014D01*
X142157900Y-114454993D01*
X142191394Y-114579993D01*
X142281714Y-114798045D01*
X142281719Y-114798056D01*
X142352677Y-114920957D01*
X142399727Y-115002450D01*
X142399729Y-115002453D01*
X142399730Y-115002454D01*
X142543406Y-115189697D01*
X142543412Y-115189704D01*
X142710295Y-115356587D01*
X142710302Y-115356593D01*
X142820306Y-115441001D01*
X142897550Y-115500273D01*
X142977249Y-115546287D01*
X143101943Y-115618280D01*
X143101948Y-115618282D01*
X143101951Y-115618284D01*
X143320007Y-115708606D01*
X143547986Y-115769693D01*
X143781989Y-115800500D01*
X143781996Y-115800500D01*
X144018004Y-115800500D01*
X144018011Y-115800500D01*
X144252014Y-115769693D01*
X144479993Y-115708606D01*
X144698049Y-115618284D01*
X144902450Y-115500273D01*
X145089699Y-115356592D01*
X145256592Y-115189699D01*
X145400273Y-115002450D01*
X145518284Y-114798049D01*
X145608606Y-114579993D01*
X145669693Y-114352014D01*
X145700500Y-114118011D01*
X145700500Y-113881989D01*
X145669693Y-113647986D01*
X145608606Y-113420007D01*
X145518284Y-113201951D01*
X145518282Y-113201948D01*
X145518280Y-113201943D01*
X145473335Y-113124097D01*
X145400273Y-112997550D01*
X145309932Y-112879815D01*
X145256593Y-112810302D01*
X145256587Y-112810295D01*
X145089704Y-112643412D01*
X145089697Y-112643406D01*
X144902454Y-112499730D01*
X144902453Y-112499729D01*
X144902450Y-112499727D01*
X144820957Y-112452677D01*
X144698056Y-112381719D01*
X144698045Y-112381714D01*
X144479993Y-112291394D01*
X144465770Y-112287583D01*
X144354505Y-112257769D01*
X144349321Y-112254610D01*
X144343266Y-112254177D01*
X144319837Y-112236638D01*
X144294846Y-112221405D01*
X144292192Y-112215943D01*
X144287333Y-112212305D01*
X144277105Y-112184885D01*
X144264317Y-112158558D01*
X144265037Y-112152529D01*
X144262916Y-112146841D01*
X144269137Y-112118241D01*
X144272612Y-112089182D01*
X144276807Y-112082983D01*
X144277768Y-112078568D01*
X144298916Y-112050317D01*
X144473746Y-111875488D01*
X144473749Y-111875487D01*
X144585553Y-111763683D01*
X144635672Y-111676871D01*
X144664610Y-111626752D01*
X144705533Y-111474025D01*
X144705533Y-111315910D01*
X144705533Y-110384108D01*
X146449500Y-110384108D01*
X146449500Y-122515892D01*
X146456385Y-122541588D01*
X146483608Y-122643187D01*
X146516554Y-122700250D01*
X146549500Y-122757314D01*
X146642686Y-122850500D01*
X146756814Y-122916392D01*
X146884108Y-122950500D01*
X146884110Y-122950500D01*
X151799873Y-122950500D01*
X151866912Y-122970185D01*
X151912667Y-123022989D01*
X151922611Y-123092147D01*
X151893586Y-123155703D01*
X151853674Y-123186220D01*
X151692351Y-123263908D01*
X151454544Y-123413333D01*
X151234966Y-123588440D01*
X151036374Y-123787032D01*
X150861267Y-124006610D01*
X150711844Y-124244414D01*
X150589991Y-124497445D01*
X150497234Y-124762527D01*
X150497230Y-124762539D01*
X150434736Y-125036344D01*
X150434733Y-125036362D01*
X150403291Y-125315425D01*
X150403291Y-125596288D01*
X150434733Y-125875351D01*
X150434736Y-125875369D01*
X150497230Y-126149174D01*
X150497234Y-126149186D01*
X150589991Y-126414268D01*
X150711844Y-126667299D01*
X150747930Y-126724729D01*
X150861268Y-126905105D01*
X151036375Y-127124682D01*
X151234966Y-127323273D01*
X151454543Y-127498380D01*
X151692346Y-127647802D01*
X151945383Y-127769658D01*
X152126384Y-127832993D01*
X152210461Y-127862413D01*
X152210473Y-127862417D01*
X152484282Y-127924912D01*
X152484288Y-127924912D01*
X152484296Y-127924914D01*
X152653321Y-127943958D01*
X152763360Y-127956356D01*
X152763363Y-127956357D01*
X152763366Y-127956357D01*
X153044219Y-127956357D01*
X153044220Y-127956356D01*
X153186846Y-127940286D01*
X153323285Y-127924914D01*
X153323290Y-127924913D01*
X153323300Y-127924912D01*
X153597109Y-127862417D01*
X153862199Y-127769658D01*
X154115236Y-127647802D01*
X154353039Y-127498380D01*
X154572616Y-127323273D01*
X154771207Y-127124682D01*
X154911131Y-126949223D01*
X156899500Y-126949223D01*
X156899500Y-127250776D01*
X156899501Y-127250793D01*
X156938861Y-127549766D01*
X157016913Y-127841060D01*
X157132314Y-128119661D01*
X157132318Y-128119671D01*
X157283099Y-128380831D01*
X157466679Y-128620078D01*
X157466685Y-128620085D01*
X157679914Y-128833314D01*
X157679921Y-128833320D01*
X157919168Y-129016900D01*
X158180328Y-129167681D01*
X158180329Y-129167681D01*
X158180332Y-129167683D01*
X158335815Y-129232086D01*
X158458939Y-129283086D01*
X158458940Y-129283086D01*
X158458942Y-129283087D01*
X158750232Y-129361138D01*
X159049217Y-129400500D01*
X159049224Y-129400500D01*
X159350776Y-129400500D01*
X159350783Y-129400500D01*
X159649768Y-129361138D01*
X159941058Y-129283087D01*
X160219668Y-129167683D01*
X160480832Y-129016900D01*
X160720080Y-128833319D01*
X160933319Y-128620080D01*
X161116900Y-128380832D01*
X161267683Y-128119668D01*
X161383087Y-127841058D01*
X161461138Y-127549768D01*
X161500500Y-127250783D01*
X161500500Y-126949217D01*
X161461138Y-126650232D01*
X161383087Y-126358942D01*
X161267683Y-126080332D01*
X161238445Y-126029691D01*
X161116900Y-125819168D01*
X160933320Y-125579921D01*
X160933314Y-125579914D01*
X160720085Y-125366685D01*
X160720078Y-125366679D01*
X160480831Y-125183099D01*
X160219671Y-125032318D01*
X160219661Y-125032314D01*
X159941060Y-124916913D01*
X159649766Y-124838861D01*
X159350793Y-124799501D01*
X159350788Y-124799500D01*
X159350783Y-124799500D01*
X159049217Y-124799500D01*
X159049211Y-124799500D01*
X159049206Y-124799501D01*
X158750233Y-124838861D01*
X158458939Y-124916913D01*
X158180338Y-125032314D01*
X158180328Y-125032318D01*
X157919168Y-125183099D01*
X157679921Y-125366679D01*
X157679914Y-125366685D01*
X157466685Y-125579914D01*
X157466679Y-125579921D01*
X157283099Y-125819168D01*
X157132318Y-126080328D01*
X157132314Y-126080338D01*
X157016913Y-126358939D01*
X156938861Y-126650233D01*
X156899501Y-126949206D01*
X156899500Y-126949223D01*
X154911131Y-126949223D01*
X154946314Y-126905105D01*
X155095736Y-126667302D01*
X155217592Y-126414265D01*
X155310351Y-126149175D01*
X155372846Y-125875366D01*
X155404291Y-125596282D01*
X155404291Y-125315432D01*
X155380672Y-125105806D01*
X155372848Y-125036362D01*
X155372845Y-125036344D01*
X155310351Y-124762539D01*
X155310347Y-124762527D01*
X155287256Y-124696537D01*
X155217592Y-124497449D01*
X155095736Y-124244412D01*
X154946314Y-124006609D01*
X154771207Y-123787032D01*
X154572616Y-123588441D01*
X154353039Y-123413334D01*
X154115236Y-123263912D01*
X154115237Y-123263912D01*
X154115230Y-123263908D01*
X153953908Y-123186220D01*
X153902048Y-123139398D01*
X153883735Y-123071971D01*
X153904783Y-123005347D01*
X153958509Y-122960678D01*
X154007709Y-122950500D01*
X159015890Y-122950500D01*
X159015892Y-122950500D01*
X159143186Y-122916392D01*
X159257314Y-122850500D01*
X159350500Y-122757314D01*
X159416392Y-122643186D01*
X159450500Y-122515892D01*
X159450500Y-118756995D01*
X160249500Y-118756995D01*
X160249500Y-118993004D01*
X160249501Y-118993020D01*
X160280306Y-119227010D01*
X160341394Y-119454993D01*
X160431714Y-119673045D01*
X160431719Y-119673056D01*
X160481935Y-119760031D01*
X160549727Y-119877450D01*
X160549729Y-119877453D01*
X160549730Y-119877454D01*
X160693406Y-120064697D01*
X160693412Y-120064704D01*
X160860295Y-120231587D01*
X160860301Y-120231592D01*
X161047550Y-120375273D01*
X161178918Y-120451118D01*
X161251943Y-120493280D01*
X161251948Y-120493282D01*
X161251951Y-120493284D01*
X161470007Y-120583606D01*
X161697986Y-120644693D01*
X161931989Y-120675500D01*
X161931996Y-120675500D01*
X162168004Y-120675500D01*
X162168011Y-120675500D01*
X162402014Y-120644693D01*
X162629993Y-120583606D01*
X162848049Y-120493284D01*
X163052450Y-120375273D01*
X163239699Y-120231592D01*
X163406592Y-120064699D01*
X163550273Y-119877450D01*
X163668284Y-119673049D01*
X163758606Y-119454993D01*
X163819693Y-119227014D01*
X163850500Y-118993011D01*
X163850500Y-118756989D01*
X163819693Y-118522986D01*
X163758606Y-118295007D01*
X163668284Y-118076951D01*
X163668282Y-118076948D01*
X163668280Y-118076943D01*
X163600494Y-117959536D01*
X163550273Y-117872550D01*
X163406592Y-117685301D01*
X163406587Y-117685295D01*
X163239704Y-117518412D01*
X163239697Y-117518406D01*
X163052454Y-117374730D01*
X163052453Y-117374729D01*
X163052450Y-117374727D01*
X162970957Y-117327677D01*
X162848056Y-117256719D01*
X162848045Y-117256714D01*
X162629993Y-117166394D01*
X162402010Y-117105306D01*
X162168020Y-117074501D01*
X162168017Y-117074500D01*
X162168011Y-117074500D01*
X161931989Y-117074500D01*
X161931983Y-117074500D01*
X161931979Y-117074501D01*
X161697989Y-117105306D01*
X161470006Y-117166394D01*
X161251954Y-117256714D01*
X161251943Y-117256719D01*
X161047545Y-117374730D01*
X160860302Y-117518406D01*
X160860295Y-117518412D01*
X160693412Y-117685295D01*
X160693406Y-117685302D01*
X160549730Y-117872545D01*
X160431719Y-118076943D01*
X160431714Y-118076954D01*
X160341394Y-118295006D01*
X160280306Y-118522989D01*
X160249501Y-118756979D01*
X160249500Y-118756995D01*
X159450500Y-118756995D01*
X159450500Y-113756995D01*
X160349500Y-113756995D01*
X160349500Y-113993004D01*
X160349501Y-113993020D01*
X160380306Y-114227010D01*
X160441394Y-114454993D01*
X160531714Y-114673045D01*
X160531719Y-114673056D01*
X160602677Y-114795957D01*
X160649727Y-114877450D01*
X160649729Y-114877453D01*
X160649730Y-114877454D01*
X160793406Y-115064697D01*
X160793412Y-115064704D01*
X160960295Y-115231587D01*
X160960301Y-115231592D01*
X161147550Y-115375273D01*
X161278918Y-115451118D01*
X161351943Y-115493280D01*
X161351948Y-115493282D01*
X161351951Y-115493284D01*
X161570007Y-115583606D01*
X161797986Y-115644693D01*
X162031989Y-115675500D01*
X162031996Y-115675500D01*
X162268004Y-115675500D01*
X162268011Y-115675500D01*
X162502014Y-115644693D01*
X162729993Y-115583606D01*
X162948049Y-115493284D01*
X163152450Y-115375273D01*
X163339699Y-115231592D01*
X163506592Y-115064699D01*
X163650273Y-114877450D01*
X163768284Y-114673049D01*
X163858606Y-114454993D01*
X163919693Y-114227014D01*
X163950500Y-113993011D01*
X163950500Y-113756989D01*
X163919693Y-113522986D01*
X163858606Y-113295007D01*
X163768284Y-113076951D01*
X163768282Y-113076948D01*
X163768280Y-113076943D01*
X163712610Y-112980521D01*
X163650273Y-112872550D01*
X163506592Y-112685301D01*
X163506587Y-112685295D01*
X163339704Y-112518412D01*
X163339697Y-112518406D01*
X163152454Y-112374730D01*
X163152453Y-112374729D01*
X163152450Y-112374727D01*
X163070957Y-112327677D01*
X162948056Y-112256719D01*
X162948045Y-112256714D01*
X162729993Y-112166394D01*
X162502010Y-112105306D01*
X162268020Y-112074501D01*
X162268017Y-112074500D01*
X162268011Y-112074500D01*
X162031989Y-112074500D01*
X162031983Y-112074500D01*
X162031979Y-112074501D01*
X161797989Y-112105306D01*
X161570006Y-112166394D01*
X161351954Y-112256714D01*
X161351943Y-112256719D01*
X161147545Y-112374730D01*
X160960302Y-112518406D01*
X160960295Y-112518412D01*
X160793412Y-112685295D01*
X160793406Y-112685302D01*
X160649730Y-112872545D01*
X160531719Y-113076943D01*
X160531714Y-113076954D01*
X160441394Y-113295006D01*
X160380306Y-113522989D01*
X160349501Y-113756979D01*
X160349500Y-113756995D01*
X159450500Y-113756995D01*
X159450500Y-110384108D01*
X159416392Y-110256814D01*
X159350500Y-110142686D01*
X159257314Y-110049500D01*
X159171578Y-110000000D01*
X159143187Y-109983608D01*
X159079539Y-109966554D01*
X159015892Y-109949500D01*
X159015891Y-109949500D01*
X154032034Y-109949500D01*
X153964995Y-109929815D01*
X153919240Y-109877011D01*
X153909296Y-109807853D01*
X153938321Y-109744297D01*
X153978232Y-109713780D01*
X154056076Y-109676292D01*
X154115236Y-109647802D01*
X154353039Y-109498380D01*
X154572616Y-109323273D01*
X154771207Y-109124682D01*
X154946314Y-108905105D01*
X155095736Y-108667302D01*
X155217592Y-108414265D01*
X155310351Y-108149175D01*
X155372846Y-107875366D01*
X155374996Y-107856290D01*
X155404290Y-107596288D01*
X155404291Y-107596284D01*
X155404291Y-107315429D01*
X155404290Y-107315425D01*
X155402365Y-107298344D01*
X155393809Y-107222404D01*
X155372848Y-107036362D01*
X155372845Y-107036344D01*
X155362200Y-106989707D01*
X155310351Y-106762539D01*
X155305963Y-106750000D01*
X155279312Y-106673834D01*
X155217592Y-106497449D01*
X155095736Y-106244412D01*
X154986460Y-106070500D01*
X154956028Y-106022068D01*
X154956027Y-106022066D01*
X154946316Y-106006612D01*
X154946315Y-106006611D01*
X154946314Y-106006609D01*
X154908800Y-105959568D01*
X156699500Y-105959568D01*
X156699500Y-106240431D01*
X156730942Y-106519494D01*
X156730945Y-106519512D01*
X156793439Y-106793317D01*
X156793443Y-106793329D01*
X156886200Y-107058411D01*
X157008053Y-107311442D01*
X157008055Y-107311445D01*
X157157477Y-107549248D01*
X157332584Y-107768825D01*
X157531175Y-107967416D01*
X157750752Y-108142523D01*
X157988555Y-108291945D01*
X158241592Y-108413801D01*
X158440680Y-108483465D01*
X158506670Y-108506556D01*
X158506682Y-108506560D01*
X158780491Y-108569055D01*
X158780497Y-108569055D01*
X158780505Y-108569057D01*
X158966547Y-108590018D01*
X159059569Y-108600499D01*
X159059572Y-108600500D01*
X159059575Y-108600500D01*
X159340428Y-108600500D01*
X159340429Y-108600499D01*
X159483055Y-108584429D01*
X159619494Y-108569057D01*
X159619499Y-108569056D01*
X159619509Y-108569055D01*
X159893318Y-108506560D01*
X160158408Y-108413801D01*
X160411445Y-108291945D01*
X160649248Y-108142523D01*
X160868825Y-107967416D01*
X161067416Y-107768825D01*
X161242523Y-107549248D01*
X161391945Y-107311445D01*
X161513801Y-107058408D01*
X161606560Y-106793318D01*
X161669055Y-106519509D01*
X161669059Y-106519480D01*
X161684795Y-106379814D01*
X161700500Y-106240425D01*
X161700500Y-105959575D01*
X161669055Y-105680491D01*
X161606560Y-105406682D01*
X161513801Y-105141592D01*
X161391945Y-104888555D01*
X161242523Y-104650752D01*
X161067416Y-104431175D01*
X160868825Y-104232584D01*
X160649248Y-104057477D01*
X160411445Y-103908055D01*
X160411442Y-103908053D01*
X160158411Y-103786200D01*
X159893329Y-103693443D01*
X159893317Y-103693439D01*
X159619512Y-103630945D01*
X159619494Y-103630942D01*
X159340431Y-103599500D01*
X159340425Y-103599500D01*
X159059575Y-103599500D01*
X159059568Y-103599500D01*
X158780505Y-103630942D01*
X158780487Y-103630945D01*
X158506682Y-103693439D01*
X158506670Y-103693443D01*
X158241588Y-103786200D01*
X157988557Y-103908053D01*
X157750753Y-104057476D01*
X157531175Y-104232583D01*
X157332583Y-104431175D01*
X157157476Y-104650753D01*
X157008053Y-104888557D01*
X156886200Y-105141588D01*
X156793443Y-105406670D01*
X156793439Y-105406682D01*
X156730945Y-105680487D01*
X156730942Y-105680505D01*
X156699500Y-105959568D01*
X154908800Y-105959568D01*
X154771207Y-105787032D01*
X154572616Y-105588441D01*
X154353039Y-105413334D01*
X154124508Y-105269738D01*
X154115233Y-105263910D01*
X153862202Y-105142057D01*
X153597120Y-105049300D01*
X153597108Y-105049296D01*
X153323303Y-104986802D01*
X153323285Y-104986799D01*
X153044222Y-104955357D01*
X153044216Y-104955357D01*
X152763366Y-104955357D01*
X152763359Y-104955357D01*
X152484296Y-104986799D01*
X152484278Y-104986802D01*
X152210473Y-105049296D01*
X152210461Y-105049300D01*
X151945379Y-105142057D01*
X151692348Y-105263910D01*
X151454544Y-105413333D01*
X151234966Y-105588440D01*
X151036374Y-105787032D01*
X150861267Y-106006610D01*
X150711844Y-106244414D01*
X150589991Y-106497445D01*
X150497234Y-106762527D01*
X150497230Y-106762539D01*
X150434736Y-107036344D01*
X150434733Y-107036362D01*
X150403291Y-107315425D01*
X150403291Y-107596288D01*
X150434733Y-107875351D01*
X150434736Y-107875369D01*
X150497230Y-108149174D01*
X150497234Y-108149186D01*
X150589991Y-108414268D01*
X150711844Y-108667299D01*
X150711846Y-108667302D01*
X150861268Y-108905105D01*
X151036375Y-109124682D01*
X151234966Y-109323273D01*
X151454543Y-109498380D01*
X151685732Y-109643646D01*
X151692348Y-109647803D01*
X151829350Y-109713780D01*
X151881209Y-109760602D01*
X151899522Y-109828029D01*
X151878474Y-109894653D01*
X151824748Y-109939322D01*
X151775548Y-109949500D01*
X146884108Y-109949500D01*
X146756812Y-109983608D01*
X146642686Y-110049500D01*
X146642683Y-110049502D01*
X146549502Y-110142683D01*
X146549500Y-110142686D01*
X146483608Y-110256812D01*
X146465684Y-110323707D01*
X146449500Y-110384108D01*
X144705533Y-110384108D01*
X144705533Y-109420943D01*
X144664610Y-109268216D01*
X144646444Y-109236751D01*
X144585557Y-109131290D01*
X144585551Y-109131282D01*
X144473750Y-109019481D01*
X144473749Y-109019480D01*
X144406266Y-108980519D01*
X144336818Y-108940423D01*
X144184091Y-108899500D01*
X144184089Y-108899499D01*
X144184088Y-108899499D01*
X144023063Y-108899499D01*
X143956024Y-108879814D01*
X143910269Y-108827010D01*
X143899774Y-108788751D01*
X143897124Y-108764096D01*
X143846830Y-108629251D01*
X143846826Y-108629244D01*
X143778364Y-108537792D01*
X143760579Y-108514034D01*
X143650187Y-108431394D01*
X143647451Y-108427740D01*
X143643297Y-108425843D01*
X143626706Y-108400028D01*
X143608318Y-108375463D01*
X143607302Y-108369833D01*
X143605523Y-108367065D01*
X143600500Y-108332130D01*
X143600500Y-108314060D01*
X143600501Y-108314047D01*
X143600501Y-108145944D01*
X143600501Y-108145943D01*
X143559577Y-107993216D01*
X143542469Y-107963583D01*
X143480524Y-107856290D01*
X143480518Y-107856282D01*
X141668013Y-106043777D01*
X141583804Y-105959568D01*
X144199500Y-105959568D01*
X144199500Y-106240431D01*
X144230942Y-106519494D01*
X144230945Y-106519512D01*
X144293439Y-106793317D01*
X144293443Y-106793329D01*
X144386200Y-107058411D01*
X144508053Y-107311442D01*
X144508055Y-107311445D01*
X144657477Y-107549248D01*
X144832584Y-107768825D01*
X145031175Y-107967416D01*
X145250752Y-108142523D01*
X145488555Y-108291945D01*
X145741592Y-108413801D01*
X145940680Y-108483465D01*
X146006670Y-108506556D01*
X146006682Y-108506560D01*
X146280491Y-108569055D01*
X146280497Y-108569055D01*
X146280505Y-108569057D01*
X146466547Y-108590018D01*
X146559569Y-108600499D01*
X146559572Y-108600500D01*
X146559575Y-108600500D01*
X146840428Y-108600500D01*
X146840429Y-108600499D01*
X146983055Y-108584429D01*
X147119494Y-108569057D01*
X147119499Y-108569056D01*
X147119509Y-108569055D01*
X147393318Y-108506560D01*
X147658408Y-108413801D01*
X147911445Y-108291945D01*
X148149248Y-108142523D01*
X148368825Y-107967416D01*
X148567416Y-107768825D01*
X148742523Y-107549248D01*
X148891945Y-107311445D01*
X149013801Y-107058408D01*
X149106560Y-106793318D01*
X149169055Y-106519509D01*
X149169059Y-106519480D01*
X149184795Y-106379814D01*
X149200500Y-106240425D01*
X149200500Y-105959575D01*
X149169055Y-105680491D01*
X149106560Y-105406682D01*
X149013801Y-105141592D01*
X148891945Y-104888555D01*
X148742523Y-104650752D01*
X148567416Y-104431175D01*
X148368825Y-104232584D01*
X148149248Y-104057477D01*
X147911445Y-103908055D01*
X147911442Y-103908053D01*
X147658411Y-103786200D01*
X147393329Y-103693443D01*
X147393317Y-103693439D01*
X147119512Y-103630945D01*
X147119494Y-103630942D01*
X146840431Y-103599500D01*
X146840425Y-103599500D01*
X146559575Y-103599500D01*
X146559568Y-103599500D01*
X146280505Y-103630942D01*
X146280487Y-103630945D01*
X146006682Y-103693439D01*
X146006670Y-103693443D01*
X145741588Y-103786200D01*
X145488557Y-103908053D01*
X145250753Y-104057476D01*
X145031175Y-104232583D01*
X144832583Y-104431175D01*
X144657476Y-104650753D01*
X144508053Y-104888557D01*
X144386200Y-105141588D01*
X144293443Y-105406670D01*
X144293439Y-105406682D01*
X144230945Y-105680487D01*
X144230942Y-105680505D01*
X144199500Y-105959568D01*
X141583804Y-105959568D01*
X139762590Y-104138355D01*
X139762588Y-104138352D01*
X139643717Y-104019481D01*
X139643716Y-104019480D01*
X139556904Y-103969360D01*
X139556904Y-103969359D01*
X139556900Y-103969358D01*
X139506785Y-103940423D01*
X139354057Y-103899499D01*
X139195943Y-103899499D01*
X139188347Y-103899499D01*
X139188331Y-103899500D01*
X138980425Y-103899500D01*
X138913386Y-103879815D01*
X138874887Y-103840598D01*
X138847968Y-103796956D01*
X138728044Y-103677032D01*
X138728040Y-103677029D01*
X138583705Y-103588001D01*
X138583699Y-103587998D01*
X138583697Y-103587997D01*
X138583694Y-103587996D01*
X138422709Y-103534651D01*
X138323346Y-103524500D01*
X137776662Y-103524500D01*
X137776644Y-103524501D01*
X137677292Y-103534650D01*
X137677289Y-103534651D01*
X137516305Y-103587996D01*
X137516294Y-103588001D01*
X137371959Y-103677029D01*
X137371955Y-103677032D01*
X137362681Y-103686307D01*
X137301358Y-103719792D01*
X137231666Y-103714808D01*
X137187319Y-103686307D01*
X137178044Y-103677032D01*
X137178040Y-103677029D01*
X137033705Y-103588001D01*
X137033699Y-103587998D01*
X137033697Y-103587997D01*
X137033694Y-103587996D01*
X136872709Y-103534651D01*
X136773346Y-103524500D01*
X136226662Y-103524500D01*
X136226644Y-103524501D01*
X136127292Y-103534650D01*
X136127289Y-103534651D01*
X135966305Y-103587996D01*
X135966294Y-103588001D01*
X135821959Y-103677029D01*
X135821955Y-103677032D01*
X135702031Y-103796956D01*
X135675113Y-103840598D01*
X135623165Y-103887322D01*
X135569575Y-103899500D01*
X132079766Y-103899500D01*
X132012727Y-103879815D01*
X132010875Y-103878602D01*
X131879185Y-103790609D01*
X131879172Y-103790602D01*
X131733501Y-103730264D01*
X131733489Y-103730261D01*
X131578845Y-103699500D01*
X131578842Y-103699500D01*
X131421158Y-103699500D01*
X131421155Y-103699500D01*
X131266510Y-103730261D01*
X131266498Y-103730264D01*
X131120827Y-103790602D01*
X131120814Y-103790609D01*
X130989711Y-103878210D01*
X130989707Y-103878213D01*
X130878213Y-103989707D01*
X130878210Y-103989711D01*
X130790609Y-104120814D01*
X130790602Y-104120827D01*
X130730264Y-104266498D01*
X130730261Y-104266510D01*
X130699500Y-104421153D01*
X130699500Y-104578846D01*
X130730261Y-104733489D01*
X130730264Y-104733501D01*
X130790602Y-104879172D01*
X130790609Y-104879185D01*
X130878210Y-105010288D01*
X130878213Y-105010292D01*
X130989707Y-105121786D01*
X130989711Y-105121789D01*
X131120814Y-105209390D01*
X131120827Y-105209397D01*
X131252435Y-105263910D01*
X131266503Y-105269737D01*
X131421153Y-105300499D01*
X131421156Y-105300500D01*
X131421158Y-105300500D01*
X131578844Y-105300500D01*
X131578845Y-105300499D01*
X131733497Y-105269737D01*
X131879179Y-105209394D01*
X131888681Y-105203045D01*
X132010875Y-105121398D01*
X132077553Y-105100520D01*
X132079766Y-105100500D01*
X135569575Y-105100500D01*
X135636614Y-105120185D01*
X135675113Y-105159402D01*
X135702031Y-105203043D01*
X135821955Y-105322967D01*
X135821959Y-105322970D01*
X135966294Y-105411998D01*
X135966297Y-105411999D01*
X135966303Y-105412003D01*
X136127292Y-105465349D01*
X136226655Y-105475500D01*
X136773344Y-105475499D01*
X136773352Y-105475498D01*
X136773355Y-105475498D01*
X136827760Y-105469940D01*
X136872708Y-105465349D01*
X137033697Y-105412003D01*
X137178044Y-105322968D01*
X137187319Y-105313693D01*
X137248642Y-105280208D01*
X137318334Y-105285192D01*
X137362681Y-105313693D01*
X137371955Y-105322967D01*
X137371959Y-105322970D01*
X137516294Y-105411998D01*
X137516297Y-105411999D01*
X137516303Y-105412003D01*
X137677292Y-105465349D01*
X137776655Y-105475500D01*
X138323344Y-105475499D01*
X138323352Y-105475498D01*
X138323355Y-105475498D01*
X138377760Y-105469940D01*
X138422708Y-105465349D01*
X138583697Y-105412003D01*
X138728044Y-105322968D01*
X138847968Y-105203044D01*
X138872780Y-105162816D01*
X138924727Y-105116094D01*
X138993690Y-105104871D01*
X139057772Y-105132715D01*
X139065998Y-105140233D01*
X142173685Y-108247921D01*
X142207169Y-108309242D01*
X142209724Y-108343919D01*
X142196688Y-108537792D01*
X142185996Y-108566834D01*
X142177282Y-108596512D01*
X142172574Y-108603293D01*
X142172550Y-108603360D01*
X142172504Y-108603394D01*
X142172234Y-108603784D01*
X142153171Y-108629248D01*
X142153169Y-108629251D01*
X142102877Y-108764093D01*
X142102876Y-108764097D01*
X142096467Y-108823707D01*
X142096467Y-108823714D01*
X142096467Y-108823715D01*
X142096467Y-109176291D01*
X142096468Y-109176301D01*
X142102966Y-109236751D01*
X142100703Y-109249291D01*
X142102966Y-109263257D01*
X142102876Y-109264095D01*
X142096467Y-109323705D01*
X142096467Y-109498380D01*
X142096468Y-109625999D01*
X142093917Y-109634685D01*
X142095206Y-109643646D01*
X142084228Y-109667682D01*
X142076784Y-109693038D01*
X142069941Y-109698966D01*
X142066181Y-109707202D01*
X142043949Y-109721488D01*
X142023980Y-109738793D01*
X142013464Y-109741080D01*
X142007403Y-109744976D01*
X141972468Y-109749999D01*
X141921467Y-109749999D01*
X141854428Y-109730314D01*
X141808673Y-109677510D01*
X141797467Y-109625999D01*
X141797466Y-109323708D01*
X141797466Y-109323706D01*
X141791058Y-109264095D01*
X141791057Y-109264092D01*
X141790967Y-109263254D01*
X141790967Y-109236745D01*
X141791057Y-109235907D01*
X141791058Y-109235905D01*
X141797467Y-109176295D01*
X141797466Y-108823708D01*
X141791058Y-108764097D01*
X141785480Y-108749142D01*
X141740764Y-108629251D01*
X141740762Y-108629248D01*
X141734448Y-108620814D01*
X141721700Y-108603784D01*
X141697283Y-108538319D01*
X141696967Y-108529473D01*
X141696967Y-108399999D01*
X141487174Y-108399999D01*
X141443839Y-108392180D01*
X141404455Y-108377490D01*
X141404447Y-108377488D01*
X141344850Y-108371081D01*
X141344848Y-108371080D01*
X141344840Y-108371080D01*
X141344832Y-108371080D01*
X141165611Y-108371080D01*
X141098572Y-108351395D01*
X141077930Y-108334761D01*
X139381523Y-106638355D01*
X139381521Y-106638352D01*
X139262650Y-106519481D01*
X139262649Y-106519480D01*
X139175837Y-106469360D01*
X139175837Y-106469359D01*
X139175833Y-106469358D01*
X139125718Y-106440423D01*
X138972990Y-106399499D01*
X138972987Y-106399499D01*
X138930424Y-106399499D01*
X138863385Y-106379814D01*
X138824887Y-106340598D01*
X138797968Y-106296956D01*
X138678044Y-106177032D01*
X138678040Y-106177029D01*
X138533705Y-106088001D01*
X138533699Y-106087998D01*
X138533697Y-106087997D01*
X138480894Y-106070500D01*
X138372709Y-106034651D01*
X138273346Y-106024500D01*
X137726662Y-106024500D01*
X137726644Y-106024501D01*
X137627292Y-106034650D01*
X137627289Y-106034651D01*
X137466305Y-106087996D01*
X137466294Y-106088001D01*
X137321959Y-106177029D01*
X137321953Y-106177033D01*
X137312324Y-106186663D01*
X137251000Y-106220146D01*
X137181308Y-106215159D01*
X137136965Y-106186660D01*
X137127732Y-106177427D01*
X137127728Y-106177424D01*
X136983492Y-106088457D01*
X136983481Y-106088452D01*
X136822606Y-106035144D01*
X136723322Y-106025000D01*
X136700000Y-106025000D01*
X136700000Y-107974999D01*
X136723308Y-107974999D01*
X136723322Y-107974998D01*
X136822607Y-107964855D01*
X136983481Y-107911547D01*
X136983492Y-107911542D01*
X137127731Y-107822573D01*
X137136959Y-107813345D01*
X137198279Y-107779856D01*
X137267971Y-107784835D01*
X137312327Y-107813339D01*
X137321955Y-107822967D01*
X137321959Y-107822970D01*
X137466294Y-107911998D01*
X137466297Y-107911999D01*
X137466303Y-107912003D01*
X137627292Y-107965349D01*
X137726655Y-107975500D01*
X138273344Y-107975499D01*
X138273352Y-107975498D01*
X138273355Y-107975498D01*
X138327760Y-107969940D01*
X138372708Y-107965349D01*
X138533697Y-107912003D01*
X138586924Y-107879172D01*
X138678043Y-107822969D01*
X138678440Y-107822572D01*
X138685168Y-107815843D01*
X138746486Y-107782355D01*
X138816178Y-107787334D01*
X138860535Y-107815838D01*
X139732516Y-108687819D01*
X139766001Y-108749142D01*
X139761017Y-108818834D01*
X139719145Y-108874767D01*
X139653681Y-108899184D01*
X139644835Y-108899500D01*
X139079766Y-108899500D01*
X139012727Y-108879815D01*
X139010875Y-108878602D01*
X138879185Y-108790609D01*
X138879172Y-108790602D01*
X138733501Y-108730264D01*
X138733489Y-108730261D01*
X138578845Y-108699500D01*
X138578842Y-108699500D01*
X138421158Y-108699500D01*
X138421155Y-108699500D01*
X138266510Y-108730261D01*
X138266498Y-108730264D01*
X138120827Y-108790602D01*
X138120814Y-108790609D01*
X137989711Y-108878210D01*
X137989707Y-108878213D01*
X137878213Y-108989707D01*
X137878210Y-108989711D01*
X137790609Y-109120814D01*
X137790602Y-109120827D01*
X137730264Y-109266498D01*
X137730261Y-109266510D01*
X137699500Y-109421153D01*
X137699500Y-109578846D01*
X137730261Y-109733489D01*
X137730264Y-109733501D01*
X137790602Y-109879172D01*
X137790609Y-109879185D01*
X137825304Y-109931109D01*
X137846182Y-109997786D01*
X137827698Y-110065167D01*
X137825304Y-110068891D01*
X137790609Y-110120814D01*
X137790602Y-110120827D01*
X137730264Y-110266498D01*
X137730261Y-110266510D01*
X137699500Y-110421153D01*
X137699500Y-110437751D01*
X137679815Y-110504790D01*
X137627011Y-110550545D01*
X137614508Y-110555455D01*
X137568180Y-110570806D01*
X137516305Y-110587996D01*
X137516294Y-110588001D01*
X137371959Y-110677029D01*
X137371953Y-110677033D01*
X137362324Y-110686663D01*
X137301000Y-110720146D01*
X137231308Y-110715159D01*
X137186965Y-110686660D01*
X137177732Y-110677427D01*
X137177728Y-110677424D01*
X137033492Y-110588457D01*
X137033481Y-110588452D01*
X136872606Y-110535144D01*
X136773322Y-110525000D01*
X136750000Y-110525000D01*
X136750000Y-111376000D01*
X136730315Y-111443039D01*
X136677511Y-111488794D01*
X136626000Y-111500000D01*
X136500000Y-111500000D01*
X136500000Y-111626000D01*
X136480315Y-111693039D01*
X136427511Y-111738794D01*
X136376000Y-111750000D01*
X135550001Y-111750000D01*
X135550001Y-111775500D01*
X135530316Y-111842539D01*
X135477512Y-111888294D01*
X135426001Y-111899500D01*
X134800098Y-111899500D01*
X134733059Y-111879815D01*
X134712417Y-111863181D01*
X134135445Y-111286209D01*
X134050913Y-111201677D01*
X135550000Y-111201677D01*
X135550000Y-111250000D01*
X136250000Y-111250000D01*
X136250000Y-110524999D01*
X136226693Y-110525000D01*
X136226674Y-110525001D01*
X136127392Y-110535144D01*
X135966518Y-110588452D01*
X135966507Y-110588457D01*
X135822271Y-110677424D01*
X135822267Y-110677427D01*
X135702427Y-110797267D01*
X135702424Y-110797271D01*
X135613457Y-110941507D01*
X135613452Y-110941518D01*
X135560144Y-111102393D01*
X135550000Y-111201677D01*
X134050913Y-111201677D01*
X132273551Y-109424316D01*
X132240066Y-109362993D01*
X132245050Y-109293301D01*
X132246671Y-109289182D01*
X132269737Y-109233497D01*
X132300500Y-109078842D01*
X132300500Y-108921158D01*
X132300500Y-108921155D01*
X132300499Y-108921153D01*
X132284598Y-108841214D01*
X132269737Y-108766503D01*
X132256436Y-108734391D01*
X132209397Y-108620827D01*
X132209390Y-108620814D01*
X132121789Y-108489711D01*
X132121786Y-108489707D01*
X132010292Y-108378213D01*
X132010284Y-108378207D01*
X131972712Y-108353102D01*
X131927906Y-108299490D01*
X131919199Y-108230165D01*
X131949353Y-108167138D01*
X131972712Y-108146898D01*
X131999279Y-108129145D01*
X132010289Y-108121789D01*
X132121789Y-108010289D01*
X132209394Y-107879179D01*
X132269737Y-107733497D01*
X132300500Y-107578842D01*
X132300500Y-107421158D01*
X132300500Y-107421155D01*
X132300499Y-107421153D01*
X132295815Y-107397607D01*
X132276066Y-107298322D01*
X135500001Y-107298322D01*
X135510144Y-107397607D01*
X135563452Y-107558481D01*
X135563457Y-107558492D01*
X135652424Y-107702728D01*
X135652427Y-107702732D01*
X135772267Y-107822572D01*
X135772271Y-107822575D01*
X135916507Y-107911542D01*
X135916518Y-107911547D01*
X136077393Y-107964855D01*
X136176683Y-107974999D01*
X136200000Y-107974998D01*
X136200000Y-107250000D01*
X135500001Y-107250000D01*
X135500001Y-107298322D01*
X132276066Y-107298322D01*
X132269737Y-107266503D01*
X132269735Y-107266498D01*
X132261282Y-107246090D01*
X132209397Y-107120827D01*
X132209390Y-107120814D01*
X132121789Y-106989711D01*
X132121786Y-106989707D01*
X132010292Y-106878213D01*
X132010288Y-106878210D01*
X131895678Y-106801630D01*
X131895677Y-106801629D01*
X131879187Y-106790610D01*
X131879172Y-106790602D01*
X131733501Y-106730264D01*
X131733489Y-106730261D01*
X131589789Y-106701677D01*
X135500000Y-106701677D01*
X135500000Y-106750000D01*
X136200000Y-106750000D01*
X136200000Y-106024999D01*
X136176693Y-106025000D01*
X136176674Y-106025001D01*
X136077392Y-106035144D01*
X135916518Y-106088452D01*
X135916507Y-106088457D01*
X135772271Y-106177424D01*
X135772267Y-106177427D01*
X135652427Y-106297267D01*
X135652424Y-106297271D01*
X135563457Y-106441507D01*
X135563452Y-106441518D01*
X135510144Y-106602393D01*
X135500000Y-106701677D01*
X131589789Y-106701677D01*
X131578845Y-106699500D01*
X131578842Y-106699500D01*
X131421158Y-106699500D01*
X131421155Y-106699500D01*
X131266510Y-106730261D01*
X131266498Y-106730264D01*
X131120827Y-106790602D01*
X131120814Y-106790609D01*
X130989711Y-106878210D01*
X130989707Y-106878213D01*
X130878213Y-106989707D01*
X130878210Y-106989711D01*
X130790609Y-107120814D01*
X130790602Y-107120827D01*
X130730264Y-107266498D01*
X130730261Y-107266508D01*
X130699362Y-107421848D01*
X130666977Y-107483759D01*
X130665426Y-107485337D01*
X130187181Y-107963583D01*
X130125858Y-107997068D01*
X130056167Y-107992084D01*
X130000233Y-107950213D01*
X129975816Y-107884748D01*
X129975500Y-107875902D01*
X129975500Y-103324500D01*
X129995185Y-103257461D01*
X130047989Y-103211706D01*
X130099500Y-103200500D01*
X165900500Y-103200500D01*
X165967539Y-103220185D01*
G37*
%TD.AperFunction*%
%TA.AperFunction,Conductor*%
G36*
X140307658Y-111101515D02*
G01*
X140310876Y-111100816D01*
X140345363Y-111108319D01*
X140383409Y-111122509D01*
X140383412Y-111122509D01*
X140383418Y-111122512D01*
X140443028Y-111128921D01*
X141222482Y-111128920D01*
X141289521Y-111148604D01*
X141335276Y-111201408D01*
X141345220Y-111270567D01*
X141316195Y-111334123D01*
X141310163Y-111340601D01*
X140787584Y-111863181D01*
X140726261Y-111896666D01*
X140699903Y-111899500D01*
X139249096Y-111899500D01*
X139182057Y-111879815D01*
X139136302Y-111827011D01*
X139126358Y-111757853D01*
X139155383Y-111694297D01*
X139161415Y-111687819D01*
X139187819Y-111661416D01*
X139712417Y-111136819D01*
X139773740Y-111103334D01*
X139800098Y-111100500D01*
X140302029Y-111100500D01*
X140307658Y-111101515D01*
G37*
%TD.AperFunction*%
%TD*%
%TA.AperFunction,NonConductor*%
G36*
X131305703Y-111655384D02*
G01*
X131312181Y-111661416D01*
X132338584Y-112687819D01*
X132372069Y-112749142D01*
X132367085Y-112818834D01*
X132325213Y-112874767D01*
X132259749Y-112899184D01*
X132250903Y-112899500D01*
X131800098Y-112899500D01*
X131733059Y-112879815D01*
X131712417Y-112863181D01*
X131136819Y-112287583D01*
X131103334Y-112226260D01*
X131100500Y-112199902D01*
X131100500Y-111749097D01*
X131120185Y-111682058D01*
X131172989Y-111636303D01*
X131242147Y-111626359D01*
X131305703Y-111655384D01*
G37*
%TD.AperFunction*%
M02*
