%TF.GenerationSoftware,KiCad,Pcbnew,9.0.1+dfsg-1*%
%TF.CreationDate,2025-04-15T15:49:20+02:00*%
%TF.ProjectId,VCM-addon-pcb,56434d2d-6164-4646-9f6e-2d7063622e6b,rev?*%
%TF.SameCoordinates,Original*%
%TF.FileFunction,Legend,Top*%
%TF.FilePolarity,Positive*%
%FSLAX46Y46*%
G04 Gerber Fmt 4.6, Leading zero omitted, Abs format (unit mm)*
G04 Created by KiCad (PCBNEW 9.0.1+dfsg-1) date 2025-04-15 15:49:20*
%MOMM*%
%LPD*%
G01*
G04 APERTURE LIST*
%ADD10C,0.200000*%
%ADD11C,0.150000*%
%ADD12C,0.120000*%
%ADD13C,0.250000*%
G04 APERTURE END LIST*
D10*
G36*
X164035844Y-128420403D02*
G01*
X165005000Y-128735964D01*
X165005000Y-128873351D01*
X164035844Y-129189523D01*
X164035844Y-129067951D01*
X164860408Y-128804963D01*
X164035844Y-128540631D01*
X164035844Y-128420403D01*
G37*
G36*
X164945221Y-127649816D02*
G01*
X164977899Y-127708900D01*
X165001366Y-127772296D01*
X165015714Y-127840756D01*
X165020631Y-127915186D01*
X165014967Y-127990215D01*
X164998862Y-128054775D01*
X164973113Y-128110625D01*
X164937761Y-128159137D01*
X164892098Y-128201195D01*
X164840706Y-128234000D01*
X164779583Y-128260821D01*
X164707158Y-128281207D01*
X164621585Y-128294328D01*
X164520788Y-128299014D01*
X164401781Y-128292141D01*
X164302902Y-128273021D01*
X164220948Y-128243392D01*
X164153203Y-128204248D01*
X164106101Y-128163192D01*
X164069590Y-128115013D01*
X164042908Y-128058731D01*
X164026140Y-127992793D01*
X164020212Y-127915186D01*
X164024506Y-127845700D01*
X164037431Y-127776700D01*
X164058567Y-127712217D01*
X164083960Y-127664837D01*
X164177383Y-127703122D01*
X164146516Y-127770152D01*
X164128052Y-127840491D01*
X164121817Y-127915186D01*
X164128321Y-127979513D01*
X164146627Y-128032259D01*
X164176063Y-128075870D01*
X164217500Y-128111863D01*
X164265505Y-128137302D01*
X164329371Y-128157542D01*
X164412974Y-128171200D01*
X164520788Y-128176282D01*
X164630455Y-128170506D01*
X164716194Y-128154881D01*
X164782377Y-128131493D01*
X164832741Y-128101700D01*
X164870231Y-128066008D01*
X164896802Y-128024010D01*
X164913231Y-127974424D01*
X164919026Y-127915247D01*
X164912019Y-127842912D01*
X164890215Y-127766969D01*
X164851737Y-127686086D01*
X164945221Y-127649816D01*
G37*
G36*
X165005000Y-126812430D02*
G01*
X165005000Y-126924232D01*
X164174574Y-126922278D01*
X164575132Y-127066442D01*
X164575132Y-127175008D01*
X164174574Y-127319173D01*
X165005000Y-127317219D01*
X165005000Y-127429082D01*
X164035844Y-127429082D01*
X164035844Y-127280277D01*
X164473161Y-127120420D01*
X164035844Y-126961174D01*
X164035844Y-126812430D01*
X165005000Y-126812430D01*
G37*
G36*
X164976789Y-125171240D02*
G01*
X165000960Y-125235639D01*
X165015633Y-125304199D01*
X165020631Y-125377747D01*
X165013712Y-125461059D01*
X164994026Y-125532405D01*
X164962403Y-125593943D01*
X164918599Y-125647269D01*
X164864718Y-125690445D01*
X164802698Y-125721647D01*
X164730969Y-125741073D01*
X164647428Y-125747897D01*
X164563928Y-125741035D01*
X164492215Y-125721493D01*
X164430179Y-125690088D01*
X164376257Y-125646598D01*
X164332247Y-125592916D01*
X164300640Y-125531730D01*
X164281070Y-125461585D01*
X164274225Y-125380495D01*
X164277816Y-125309324D01*
X164288478Y-125240556D01*
X164306160Y-125173804D01*
X164403674Y-125202991D01*
X164379270Y-125299617D01*
X164371922Y-125379091D01*
X164376935Y-125436425D01*
X164391201Y-125485357D01*
X164414177Y-125527461D01*
X164446172Y-125563860D01*
X164484990Y-125592702D01*
X164530600Y-125613865D01*
X164584309Y-125627212D01*
X164647794Y-125631943D01*
X164705151Y-125627305D01*
X164756224Y-125613901D01*
X164802119Y-125592051D01*
X164843677Y-125561479D01*
X164878312Y-125523604D01*
X164902782Y-125481062D01*
X164917741Y-125432907D01*
X164922934Y-125377747D01*
X164919131Y-125318426D01*
X164907403Y-125256188D01*
X164887091Y-125190474D01*
X164976789Y-125171240D01*
G37*
G36*
X164729982Y-124291206D02*
G01*
X164801958Y-124308272D01*
X164863968Y-124335436D01*
X164917561Y-124372505D01*
X164962436Y-124419627D01*
X164994249Y-124473498D01*
X165013802Y-124535465D01*
X165020631Y-124607527D01*
X165013801Y-124680006D01*
X164994271Y-124742159D01*
X164962548Y-124796024D01*
X164917866Y-124842978D01*
X164864484Y-124879812D01*
X164802519Y-124906848D01*
X164730384Y-124923860D01*
X164646085Y-124929867D01*
X164562488Y-124923845D01*
X164490914Y-124906781D01*
X164429381Y-124879638D01*
X164376318Y-124842611D01*
X164331912Y-124795521D01*
X164300392Y-124741652D01*
X164281001Y-124679651D01*
X164274225Y-124607527D01*
X164371922Y-124607527D01*
X164376934Y-124654808D01*
X164391289Y-124695029D01*
X164414821Y-124729709D01*
X164448492Y-124759752D01*
X164502039Y-124788805D01*
X164567517Y-124807279D01*
X164647794Y-124813913D01*
X164723904Y-124807377D01*
X164788502Y-124788834D01*
X164843738Y-124759080D01*
X164878813Y-124728552D01*
X164903118Y-124693777D01*
X164917828Y-124653920D01*
X164922934Y-124607527D01*
X164917801Y-124561558D01*
X164902965Y-124521815D01*
X164878353Y-124486887D01*
X164842700Y-124455975D01*
X164786831Y-124425694D01*
X164722512Y-124406966D01*
X164647794Y-124400409D01*
X164568933Y-124407064D01*
X164503692Y-124425725D01*
X164449469Y-124455303D01*
X164415261Y-124485697D01*
X164391440Y-124520519D01*
X164376962Y-124560638D01*
X164371922Y-124607527D01*
X164274225Y-124607527D01*
X164281021Y-124535426D01*
X164300474Y-124473446D01*
X164332104Y-124419588D01*
X164376685Y-124372505D01*
X164429937Y-124335409D01*
X164491498Y-124308249D01*
X164562901Y-124291198D01*
X164646085Y-124285188D01*
X164729982Y-124291206D01*
G37*
G36*
X165005000Y-123490361D02*
G01*
X165005000Y-123600819D01*
X164549303Y-123600819D01*
X164486965Y-123604924D01*
X164443360Y-123615528D01*
X164413749Y-123630739D01*
X164391075Y-123653634D01*
X164377022Y-123684064D01*
X164371922Y-123724528D01*
X164378077Y-123769121D01*
X164397819Y-123817555D01*
X164434265Y-123871471D01*
X164491906Y-123932318D01*
X165005000Y-123932318D01*
X165005000Y-124042838D01*
X164289856Y-124042838D01*
X164289856Y-123932318D01*
X164392438Y-123932318D01*
X164338182Y-123872002D01*
X164301934Y-123812589D01*
X164281083Y-123753166D01*
X164274225Y-123692472D01*
X164279434Y-123637631D01*
X164293884Y-123593862D01*
X164316724Y-123558790D01*
X164348372Y-123530872D01*
X164390461Y-123509596D01*
X164445632Y-123495553D01*
X164517308Y-123490361D01*
X165005000Y-123490361D01*
G37*
G36*
X164968974Y-122643998D02*
G01*
X164998265Y-122718032D01*
X165015145Y-122788863D01*
X165020631Y-122857344D01*
X165014385Y-122919049D01*
X164997387Y-122965731D01*
X164970866Y-123000948D01*
X164934101Y-123026810D01*
X164884559Y-123043633D01*
X164818276Y-123049869D01*
X164387554Y-123049869D01*
X164387554Y-123186523D01*
X164289856Y-123186523D01*
X164289856Y-123049869D01*
X164094462Y-123049869D01*
X164094462Y-122942158D01*
X164289856Y-122942158D01*
X164289856Y-122700357D01*
X164387554Y-122700357D01*
X164387554Y-122942158D01*
X164789394Y-122942158D01*
X164831006Y-122938606D01*
X164863196Y-122928929D01*
X164888007Y-122914009D01*
X164907332Y-122893094D01*
X164918895Y-122868051D01*
X164922934Y-122837561D01*
X164918623Y-122780359D01*
X164905498Y-122722465D01*
X164883000Y-122663293D01*
X164968974Y-122643998D01*
G37*
G36*
X164310373Y-121800383D02*
G01*
X164415458Y-121844958D01*
X164393785Y-121914832D01*
X164387554Y-121967568D01*
X164393901Y-122013098D01*
X164413627Y-122058914D01*
X164444509Y-122100961D01*
X164488182Y-122141224D01*
X164532518Y-122173919D01*
X164541915Y-122178777D01*
X165005000Y-122178777D01*
X165005000Y-122288564D01*
X164289856Y-122288564D01*
X164289856Y-122178777D01*
X164428586Y-122178777D01*
X164369193Y-122140732D01*
X164326366Y-122100226D01*
X164297247Y-122057095D01*
X164280051Y-122010580D01*
X164274225Y-121959385D01*
X164278178Y-121906127D01*
X164290110Y-121853300D01*
X164310373Y-121800383D01*
G37*
G36*
X164729982Y-120934332D02*
G01*
X164801958Y-120951398D01*
X164863968Y-120978562D01*
X164917561Y-121015631D01*
X164962436Y-121062753D01*
X164994249Y-121116624D01*
X165013802Y-121178591D01*
X165020631Y-121250654D01*
X165013801Y-121323132D01*
X164994271Y-121385285D01*
X164962548Y-121439150D01*
X164917866Y-121486104D01*
X164864484Y-121522938D01*
X164802519Y-121549975D01*
X164730384Y-121566986D01*
X164646085Y-121572993D01*
X164562488Y-121566971D01*
X164490914Y-121549908D01*
X164429381Y-121522764D01*
X164376318Y-121485737D01*
X164331912Y-121438648D01*
X164300392Y-121384778D01*
X164281001Y-121322778D01*
X164274225Y-121250654D01*
X164371922Y-121250654D01*
X164376934Y-121297934D01*
X164391289Y-121338156D01*
X164414821Y-121372835D01*
X164448492Y-121402878D01*
X164502039Y-121431931D01*
X164567517Y-121450406D01*
X164647794Y-121457039D01*
X164723904Y-121450503D01*
X164788502Y-121431961D01*
X164843738Y-121402206D01*
X164878813Y-121371679D01*
X164903118Y-121336903D01*
X164917828Y-121297046D01*
X164922934Y-121250654D01*
X164917801Y-121204684D01*
X164902965Y-121164941D01*
X164878353Y-121130013D01*
X164842700Y-121099101D01*
X164786831Y-121068820D01*
X164722512Y-121050092D01*
X164647794Y-121043536D01*
X164568933Y-121050190D01*
X164503692Y-121068851D01*
X164449469Y-121098429D01*
X164415261Y-121128823D01*
X164391440Y-121163645D01*
X164376962Y-121203764D01*
X164371922Y-121250654D01*
X164274225Y-121250654D01*
X164281021Y-121178552D01*
X164300474Y-121116572D01*
X164332104Y-121062715D01*
X164376685Y-121015631D01*
X164429937Y-120978535D01*
X164491498Y-120951375D01*
X164562901Y-120934325D01*
X164646085Y-120928314D01*
X164729982Y-120934332D01*
G37*
G36*
X165005000Y-120185389D02*
G01*
X165005000Y-120480312D01*
X164133541Y-120480312D01*
X164133541Y-120666120D01*
X164035844Y-120666120D01*
X164035844Y-120369853D01*
X164907302Y-120369853D01*
X164907302Y-120185389D01*
X165005000Y-120185389D01*
G37*
G36*
X165005000Y-119346170D02*
G01*
X165005000Y-119641093D01*
X164133541Y-119641093D01*
X164133541Y-119826901D01*
X164035844Y-119826901D01*
X164035844Y-119530635D01*
X164907302Y-119530635D01*
X164907302Y-119346170D01*
X165005000Y-119346170D01*
G37*
G36*
X164653290Y-118922287D02*
G01*
X164710583Y-118917676D01*
X164761100Y-118904407D01*
X164806021Y-118882874D01*
X164846242Y-118852861D01*
X164880249Y-118815538D01*
X164903886Y-118775234D01*
X164918082Y-118731227D01*
X164922934Y-118682440D01*
X164919127Y-118618477D01*
X164907403Y-118551447D01*
X164887152Y-118480818D01*
X164976789Y-118461584D01*
X165000600Y-118527023D01*
X165015450Y-118600637D01*
X165020631Y-118683784D01*
X165013836Y-118762056D01*
X164994394Y-118829756D01*
X164962926Y-118888843D01*
X164918965Y-118940727D01*
X164865455Y-118982293D01*
X164803135Y-119012565D01*
X164730306Y-119031542D01*
X164644741Y-119038241D01*
X164560398Y-119032159D01*
X164488649Y-119014974D01*
X164427396Y-118987716D01*
X164374975Y-118950619D01*
X164330751Y-118903408D01*
X164299674Y-118850761D01*
X164280767Y-118791550D01*
X164274225Y-118724084D01*
X164274633Y-118719993D01*
X164371922Y-118719993D01*
X164378098Y-118772363D01*
X164395898Y-118816969D01*
X164425472Y-118855608D01*
X164464014Y-118885778D01*
X164509429Y-118905688D01*
X164563408Y-118915326D01*
X164563408Y-118553907D01*
X164512210Y-118559772D01*
X164467514Y-118576812D01*
X164427793Y-118605259D01*
X164395822Y-118642230D01*
X164377825Y-118680061D01*
X164371922Y-118719993D01*
X164274633Y-118719993D01*
X164280198Y-118664209D01*
X164297623Y-118610594D01*
X164326564Y-118561858D01*
X164368136Y-118517088D01*
X164417110Y-118481733D01*
X164474015Y-118455859D01*
X164540343Y-118439602D01*
X164617997Y-118433862D01*
X164653290Y-118433862D01*
X164653290Y-118922287D01*
G37*
G36*
X164310373Y-117604291D02*
G01*
X164415458Y-117648866D01*
X164393785Y-117718740D01*
X164387554Y-117771475D01*
X164393901Y-117817006D01*
X164413627Y-117862822D01*
X164444509Y-117904869D01*
X164488182Y-117945132D01*
X164532518Y-117977827D01*
X164541915Y-117982684D01*
X165005000Y-117982684D01*
X165005000Y-118092472D01*
X164289856Y-118092472D01*
X164289856Y-117982684D01*
X164428586Y-117982684D01*
X164369193Y-117944640D01*
X164326366Y-117904134D01*
X164297247Y-117861003D01*
X164280051Y-117814487D01*
X164274225Y-117763293D01*
X164278178Y-117710035D01*
X164290110Y-117657208D01*
X164310373Y-117604291D01*
G37*
G36*
X164289856Y-115904422D02*
G01*
X165005000Y-116175715D01*
X165005000Y-116275427D01*
X164289856Y-116545376D01*
X164289856Y-116425026D01*
X164848501Y-116224869D01*
X164289856Y-116024773D01*
X164289856Y-115904422D01*
G37*
G36*
X164548620Y-115279261D02*
G01*
X164574268Y-115289386D01*
X164597419Y-115306454D01*
X164615601Y-115328519D01*
X164626235Y-115352816D01*
X164629842Y-115380216D01*
X164626246Y-115407202D01*
X164615626Y-115431198D01*
X164597419Y-115453061D01*
X164574298Y-115469875D01*
X164548647Y-115479869D01*
X164519628Y-115483286D01*
X164491087Y-115479894D01*
X164466506Y-115470071D01*
X164444951Y-115453672D01*
X164428271Y-115432366D01*
X164418331Y-115408188D01*
X164414909Y-115380216D01*
X164418351Y-115352247D01*
X164428395Y-115327834D01*
X164445317Y-115306088D01*
X164467095Y-115289243D01*
X164491568Y-115279235D01*
X164519628Y-115275802D01*
X164548620Y-115279261D01*
G37*
G36*
X164637876Y-115063725D02*
G01*
X164735895Y-115080013D01*
X164817658Y-115105194D01*
X164885626Y-115138232D01*
X164935084Y-115174280D01*
X164972274Y-115215419D01*
X164998707Y-115262168D01*
X165014961Y-115315645D01*
X165020631Y-115377468D01*
X165015185Y-115437054D01*
X164999489Y-115489297D01*
X164973831Y-115535626D01*
X164937603Y-115577040D01*
X164889351Y-115614017D01*
X164823168Y-115647891D01*
X164741728Y-115673920D01*
X164642070Y-115690909D01*
X164520788Y-115697060D01*
X164403306Y-115691183D01*
X164305067Y-115674824D01*
X164223223Y-115649548D01*
X164155279Y-115616399D01*
X164105748Y-115580200D01*
X164068531Y-115539002D01*
X164042105Y-115492297D01*
X164025870Y-115438984D01*
X164020218Y-115377529D01*
X164121817Y-115377529D01*
X164127870Y-115423686D01*
X164145367Y-115462618D01*
X164174814Y-115496111D01*
X164218599Y-115524869D01*
X164266202Y-115543916D01*
X164329750Y-115559306D01*
X164412971Y-115569760D01*
X164520055Y-115573656D01*
X164628783Y-115569754D01*
X164712680Y-115559317D01*
X164776195Y-115544019D01*
X164823283Y-115525174D01*
X164866472Y-115496646D01*
X164895616Y-115463204D01*
X164912997Y-115424107D01*
X164919026Y-115377529D01*
X164913008Y-115330518D01*
X164895695Y-115291173D01*
X164866741Y-115257642D01*
X164823954Y-115229152D01*
X164777203Y-115210351D01*
X164713777Y-115195050D01*
X164629594Y-115184588D01*
X164520055Y-115180669D01*
X164410083Y-115184600D01*
X164325839Y-115195082D01*
X164262610Y-115210385D01*
X164216217Y-115229152D01*
X164173778Y-115257602D01*
X164145021Y-115291114D01*
X164127805Y-115330472D01*
X164121817Y-115377529D01*
X164020218Y-115377529D01*
X164020212Y-115377468D01*
X164025683Y-115317600D01*
X164041440Y-115265204D01*
X164067178Y-115218828D01*
X164103498Y-115177460D01*
X164151859Y-115140614D01*
X164218171Y-115106863D01*
X164299724Y-115080929D01*
X164399467Y-115064003D01*
X164520788Y-115057876D01*
X164637876Y-115063725D01*
G37*
G36*
X164844776Y-114540997D02*
G01*
X164851048Y-114506770D01*
X164869567Y-114478838D01*
X164897089Y-114460021D01*
X164930689Y-114453681D01*
X164965131Y-114460075D01*
X164994192Y-114479204D01*
X165014039Y-114507425D01*
X165020631Y-114540997D01*
X165014058Y-114573992D01*
X164994192Y-114601875D01*
X164965164Y-114620670D01*
X164930689Y-114626971D01*
X164896534Y-114620672D01*
X164869200Y-114602180D01*
X164850948Y-114574623D01*
X164844776Y-114540997D01*
G37*
G36*
X165005000Y-113419740D02*
G01*
X165005000Y-113930512D01*
X164903394Y-113930512D01*
X164903394Y-113726264D01*
X164160347Y-113726264D01*
X164255907Y-113918911D01*
X164136045Y-113918911D01*
X164031936Y-113709106D01*
X164031936Y-113610310D01*
X164903394Y-113610310D01*
X164903394Y-113419740D01*
X165005000Y-113419740D01*
G37*
G36*
X165147210Y-111781603D02*
G01*
X165209003Y-111825505D01*
X165146708Y-111899587D01*
X165080953Y-111962828D01*
X165011586Y-112016063D01*
X164938321Y-112059918D01*
X164859952Y-112095148D01*
X164780109Y-112120070D01*
X164698270Y-112135013D01*
X164613845Y-112140029D01*
X164528700Y-112135028D01*
X164446588Y-112120166D01*
X164366906Y-112095445D01*
X164289124Y-112060589D01*
X164216447Y-112017080D01*
X164147437Y-111963892D01*
X164081808Y-111900336D01*
X164019419Y-111825505D01*
X164081212Y-111781603D01*
X164160838Y-111860547D01*
X164239155Y-111920024D01*
X164316723Y-111962526D01*
X164400101Y-111991920D01*
X164497856Y-112010644D01*
X164612501Y-112017297D01*
X164731261Y-112010322D01*
X164830913Y-111990828D01*
X164914446Y-111960450D01*
X164992225Y-111916934D01*
X165069662Y-111857979D01*
X165147210Y-111781603D01*
G37*
G36*
X165005000Y-110902084D02*
G01*
X165005000Y-111412857D01*
X164903394Y-111412857D01*
X164903394Y-111208609D01*
X164160347Y-111208609D01*
X164255907Y-111401256D01*
X164136045Y-111401256D01*
X164031936Y-111191451D01*
X164031936Y-111092655D01*
X164903394Y-111092655D01*
X164903394Y-110902084D01*
X165005000Y-110902084D01*
G37*
G36*
X165005000Y-110062866D02*
G01*
X165005000Y-110573639D01*
X164903394Y-110573639D01*
X164903394Y-110369391D01*
X164160347Y-110369391D01*
X164255907Y-110562037D01*
X164136045Y-110562037D01*
X164031936Y-110352233D01*
X164031936Y-110253436D01*
X164903394Y-110253436D01*
X164903394Y-110062866D01*
X165005000Y-110062866D01*
G37*
G36*
X164672829Y-109303576D02*
G01*
X164672829Y-109713232D01*
X164563408Y-109713232D01*
X164563408Y-109303576D01*
X164672829Y-109303576D01*
G37*
G36*
X164548620Y-108565513D02*
G01*
X164574268Y-108575639D01*
X164597419Y-108592707D01*
X164615601Y-108614771D01*
X164626235Y-108639069D01*
X164629842Y-108666468D01*
X164626246Y-108693455D01*
X164615626Y-108717450D01*
X164597419Y-108739314D01*
X164574298Y-108756128D01*
X164548647Y-108766122D01*
X164519628Y-108769539D01*
X164491087Y-108766147D01*
X164466506Y-108756324D01*
X164444951Y-108739924D01*
X164428271Y-108718618D01*
X164418331Y-108694440D01*
X164414909Y-108666468D01*
X164418351Y-108638500D01*
X164428395Y-108614087D01*
X164445317Y-108592341D01*
X164467095Y-108575496D01*
X164491568Y-108565488D01*
X164519628Y-108562055D01*
X164548620Y-108565513D01*
G37*
G36*
X164637876Y-108349978D02*
G01*
X164735895Y-108366265D01*
X164817658Y-108391446D01*
X164885626Y-108424485D01*
X164935084Y-108460533D01*
X164972274Y-108501672D01*
X164998707Y-108548420D01*
X165014961Y-108601897D01*
X165020631Y-108663721D01*
X165015185Y-108723307D01*
X164999489Y-108775550D01*
X164973831Y-108821879D01*
X164937603Y-108863293D01*
X164889351Y-108900270D01*
X164823168Y-108934144D01*
X164741728Y-108960173D01*
X164642070Y-108977161D01*
X164520788Y-108983312D01*
X164403306Y-108977435D01*
X164305067Y-108961077D01*
X164223223Y-108935800D01*
X164155279Y-108902651D01*
X164105748Y-108866452D01*
X164068531Y-108825255D01*
X164042105Y-108778550D01*
X164025870Y-108725237D01*
X164020218Y-108663782D01*
X164121817Y-108663782D01*
X164127870Y-108709939D01*
X164145367Y-108748871D01*
X164174814Y-108782363D01*
X164218599Y-108811121D01*
X164266202Y-108830169D01*
X164329750Y-108845558D01*
X164412971Y-108856013D01*
X164520055Y-108859909D01*
X164628783Y-108856007D01*
X164712680Y-108845570D01*
X164776195Y-108830271D01*
X164823283Y-108811427D01*
X164866472Y-108782899D01*
X164895616Y-108749457D01*
X164912997Y-108710359D01*
X164919026Y-108663782D01*
X164913008Y-108616771D01*
X164895695Y-108577426D01*
X164866741Y-108543894D01*
X164823954Y-108515404D01*
X164777203Y-108496603D01*
X164713777Y-108481302D01*
X164629594Y-108470840D01*
X164520055Y-108466922D01*
X164410083Y-108470853D01*
X164325839Y-108481335D01*
X164262610Y-108496637D01*
X164216217Y-108515404D01*
X164173778Y-108543855D01*
X164145021Y-108577367D01*
X164127805Y-108616725D01*
X164121817Y-108663782D01*
X164020218Y-108663782D01*
X164020212Y-108663721D01*
X164025683Y-108603853D01*
X164041440Y-108551457D01*
X164067178Y-108505081D01*
X164103498Y-108463712D01*
X164151859Y-108426866D01*
X164218171Y-108393116D01*
X164299724Y-108367181D01*
X164399467Y-108350256D01*
X164520788Y-108344129D01*
X164637876Y-108349978D01*
G37*
G36*
X164782250Y-107626482D02*
G01*
X165005000Y-107626482D01*
X165005000Y-107742437D01*
X164782250Y-107742437D01*
X164782250Y-108161863D01*
X164694323Y-108161863D01*
X164035844Y-107780539D01*
X164035844Y-107742437D01*
X164155828Y-107742437D01*
X164680645Y-108043161D01*
X164680645Y-107742437D01*
X164155828Y-107742437D01*
X164035844Y-107742437D01*
X164035844Y-107626482D01*
X164680645Y-107626482D01*
X164680645Y-107507658D01*
X164782250Y-107507658D01*
X164782250Y-107626482D01*
G37*
G36*
X164672829Y-106785921D02*
G01*
X164672829Y-107195577D01*
X164563408Y-107195577D01*
X164563408Y-106785921D01*
X164672829Y-106785921D01*
G37*
G36*
X165005000Y-105892053D02*
G01*
X165005000Y-106426090D01*
X164921041Y-106426090D01*
X164713248Y-106242413D01*
X164619584Y-106164078D01*
X164540877Y-106109360D01*
X164459666Y-106066625D01*
X164402979Y-106045531D01*
X164347657Y-106033231D01*
X164293154Y-106029195D01*
X164242131Y-106034969D01*
X164201055Y-106051197D01*
X164167674Y-106077494D01*
X164143056Y-106112300D01*
X164127464Y-106156580D01*
X164121817Y-106213049D01*
X164125697Y-106257433D01*
X164139192Y-106317199D01*
X164165537Y-106396292D01*
X164063932Y-106412657D01*
X164039599Y-106341616D01*
X164025075Y-106269133D01*
X164020212Y-106194609D01*
X164025201Y-106130235D01*
X164039395Y-106074848D01*
X164062128Y-106026908D01*
X164093424Y-105985232D01*
X164132506Y-105950841D01*
X164177266Y-105926250D01*
X164228823Y-105911051D01*
X164288757Y-105905730D01*
X164345940Y-105910154D01*
X164403278Y-105923576D01*
X164461376Y-105946519D01*
X164544527Y-105992610D01*
X164625446Y-106050933D01*
X164718209Y-106129832D01*
X164903394Y-106295359D01*
X164903394Y-105892053D01*
X165005000Y-105892053D01*
G37*
G36*
X164422969Y-105426526D02*
G01*
X164413973Y-105382021D01*
X164411001Y-105337622D01*
X164416735Y-105269836D01*
X164433008Y-105212191D01*
X164459109Y-105162820D01*
X164495265Y-105120368D01*
X164539659Y-105085646D01*
X164588773Y-105060930D01*
X164643546Y-105045797D01*
X164705252Y-105040561D01*
X164769411Y-105046500D01*
X164827265Y-105063827D01*
X164880126Y-105092497D01*
X164928918Y-105133374D01*
X164969229Y-105182589D01*
X164997577Y-105235996D01*
X165014742Y-105294526D01*
X165020631Y-105359481D01*
X165015741Y-105443386D01*
X165002055Y-105514044D01*
X164980697Y-105573499D01*
X164879214Y-105550113D01*
X164901472Y-105486027D01*
X164914648Y-105421744D01*
X164919026Y-105356734D01*
X164912478Y-105300949D01*
X164893812Y-105254675D01*
X164863094Y-105215744D01*
X164822660Y-105186816D01*
X164771443Y-105168551D01*
X164706352Y-105161950D01*
X164644826Y-105168214D01*
X164597061Y-105185453D01*
X164559928Y-105212630D01*
X164531737Y-105249145D01*
X164514661Y-105291997D01*
X164508698Y-105343056D01*
X164514509Y-105400813D01*
X164532329Y-105459255D01*
X164500027Y-105528070D01*
X164035844Y-105528070D01*
X164035844Y-105083548D01*
X164137449Y-105083548D01*
X164137449Y-105426526D01*
X164422969Y-105426526D01*
G37*
G36*
X164019419Y-104659359D02*
G01*
X164081773Y-104584867D01*
X164147389Y-104521522D01*
X164216412Y-104468440D01*
X164289124Y-104424947D01*
X164366909Y-104390064D01*
X164446591Y-104365323D01*
X164528702Y-104350450D01*
X164613845Y-104345446D01*
X164698280Y-104350445D01*
X164780125Y-104365333D01*
X164859965Y-104390161D01*
X164938321Y-104425252D01*
X165011571Y-104468943D01*
X165080932Y-104522066D01*
X165146691Y-104585257D01*
X165209003Y-104659359D01*
X165147210Y-104703872D01*
X165068409Y-104625205D01*
X164989861Y-104565722D01*
X164911027Y-104523072D01*
X164826297Y-104493600D01*
X164727584Y-104474875D01*
X164612501Y-104468239D01*
X164521418Y-104472216D01*
X164441927Y-104483484D01*
X164372629Y-104501207D01*
X164312266Y-104524781D01*
X164235635Y-104567989D01*
X164158774Y-104626973D01*
X164081212Y-104703872D01*
X164019419Y-104659359D01*
G37*
D11*
X137108333Y-103429580D02*
X137060714Y-103477200D01*
X137060714Y-103477200D02*
X136917857Y-103524819D01*
X136917857Y-103524819D02*
X136822619Y-103524819D01*
X136822619Y-103524819D02*
X136679762Y-103477200D01*
X136679762Y-103477200D02*
X136584524Y-103381961D01*
X136584524Y-103381961D02*
X136536905Y-103286723D01*
X136536905Y-103286723D02*
X136489286Y-103096247D01*
X136489286Y-103096247D02*
X136489286Y-102953390D01*
X136489286Y-102953390D02*
X136536905Y-102762914D01*
X136536905Y-102762914D02*
X136584524Y-102667676D01*
X136584524Y-102667676D02*
X136679762Y-102572438D01*
X136679762Y-102572438D02*
X136822619Y-102524819D01*
X136822619Y-102524819D02*
X136917857Y-102524819D01*
X136917857Y-102524819D02*
X137060714Y-102572438D01*
X137060714Y-102572438D02*
X137108333Y-102620057D01*
X137441667Y-102524819D02*
X138060714Y-102524819D01*
X138060714Y-102524819D02*
X137727381Y-102905771D01*
X137727381Y-102905771D02*
X137870238Y-102905771D01*
X137870238Y-102905771D02*
X137965476Y-102953390D01*
X137965476Y-102953390D02*
X138013095Y-103001009D01*
X138013095Y-103001009D02*
X138060714Y-103096247D01*
X138060714Y-103096247D02*
X138060714Y-103334342D01*
X138060714Y-103334342D02*
X138013095Y-103429580D01*
X138013095Y-103429580D02*
X137965476Y-103477200D01*
X137965476Y-103477200D02*
X137870238Y-103524819D01*
X137870238Y-103524819D02*
X137584524Y-103524819D01*
X137584524Y-103524819D02*
X137489286Y-103477200D01*
X137489286Y-103477200D02*
X137441667Y-103429580D01*
X142738095Y-106954819D02*
X142738095Y-107764342D01*
X142738095Y-107764342D02*
X142785714Y-107859580D01*
X142785714Y-107859580D02*
X142833333Y-107907200D01*
X142833333Y-107907200D02*
X142928571Y-107954819D01*
X142928571Y-107954819D02*
X143119047Y-107954819D01*
X143119047Y-107954819D02*
X143214285Y-107907200D01*
X143214285Y-107907200D02*
X143261904Y-107859580D01*
X143261904Y-107859580D02*
X143309523Y-107764342D01*
X143309523Y-107764342D02*
X143309523Y-106954819D01*
X144309523Y-107954819D02*
X143738095Y-107954819D01*
X144023809Y-107954819D02*
X144023809Y-106954819D01*
X144023809Y-106954819D02*
X143928571Y-107097676D01*
X143928571Y-107097676D02*
X143833333Y-107192914D01*
X143833333Y-107192914D02*
X143738095Y-107240533D01*
D12*
%TO.C,C4*%
X137415580Y-112010000D02*
X137134420Y-112010000D01*
X137415580Y-110990000D02*
X137134420Y-110990000D01*
%TO.C,C3*%
X137134420Y-103990000D02*
X137415580Y-103990000D01*
X137134420Y-105010000D02*
X137415580Y-105010000D01*
%TO.C,C2*%
X137084420Y-106490000D02*
X137365580Y-106490000D01*
X137084420Y-107510000D02*
X137365580Y-107510000D01*
D11*
%TO.C,U1*%
X140946966Y-108496598D02*
X142946968Y-108496598D01*
X140946966Y-111003400D02*
X142946968Y-111003400D01*
D13*
X140071967Y-108999998D02*
G75*
G02*
X139821965Y-108999998I-125001J0D01*
G01*
X139821965Y-108999998D02*
G75*
G02*
X140071967Y-108999998I125001J0D01*
G01*
D12*
%TO.C,.54mm_Haaks*%
X126500000Y-115060000D02*
X132500000Y-115060000D01*
X126500000Y-115820000D02*
X126500000Y-115060000D01*
X126500000Y-117600000D02*
X132500000Y-117600000D01*
X126500000Y-118360000D02*
X126500000Y-117600000D01*
X126500000Y-120140000D02*
X132500000Y-120140000D01*
X126500000Y-120900000D02*
X126500000Y-120140000D01*
X126500000Y-122680000D02*
X132500000Y-122680000D01*
X126500000Y-123440000D02*
X126500000Y-122680000D01*
X126500000Y-125220000D02*
X132500000Y-125220000D01*
X126500000Y-125980000D02*
X126500000Y-125220000D01*
X126500000Y-127760000D02*
X132500000Y-127760000D01*
X126500000Y-128520000D02*
X126500000Y-127760000D01*
X132500000Y-114110000D02*
X132500000Y-129470000D01*
X132500000Y-115820000D02*
X126500000Y-115820000D01*
X132500000Y-118360000D02*
X126500000Y-118360000D01*
X132500000Y-120900000D02*
X126500000Y-120900000D01*
X132500000Y-123440000D02*
X126500000Y-123440000D01*
X132500000Y-125980000D02*
X126500000Y-125980000D01*
X132500000Y-127860000D02*
X126500000Y-127860000D01*
X132500000Y-127980000D02*
X126500000Y-127980000D01*
X132500000Y-128100000D02*
X126500000Y-128100000D01*
X132500000Y-128220000D02*
X126500000Y-128220000D01*
X132500000Y-128340000D02*
X126500000Y-128340000D01*
X132500000Y-128460000D02*
X126500000Y-128460000D01*
X132500000Y-128520000D02*
X126500000Y-128520000D01*
X132500000Y-129470000D02*
X135160000Y-129470000D01*
X135160000Y-114110000D02*
X132500000Y-114110000D01*
X135160000Y-116710000D02*
X132500000Y-116710000D01*
X135160000Y-119250000D02*
X132500000Y-119250000D01*
X135160000Y-121790000D02*
X132500000Y-121790000D01*
X135160000Y-124330000D02*
X132500000Y-124330000D01*
X135160000Y-126870000D02*
X132500000Y-126870000D01*
X135160000Y-129470000D02*
X135160000Y-114110000D01*
X135490000Y-127760000D02*
X135160000Y-127760000D01*
X135490000Y-128520000D02*
X135160000Y-128520000D01*
X135557071Y-115060000D02*
X135160000Y-115060000D01*
X135557071Y-115820000D02*
X135160000Y-115820000D01*
X135557071Y-117600000D02*
X135160000Y-117600000D01*
X135557071Y-118360000D02*
X135160000Y-118360000D01*
X135557071Y-120140000D02*
X135160000Y-120140000D01*
X135557071Y-120900000D02*
X135160000Y-120900000D01*
X135557071Y-122680000D02*
X135160000Y-122680000D01*
X135557071Y-123440000D02*
X135160000Y-123440000D01*
X135557071Y-125220000D02*
X135160000Y-125220000D01*
X135557071Y-125980000D02*
X135160000Y-125980000D01*
X137870000Y-128140000D02*
X137870000Y-129410000D01*
X137870000Y-129410000D02*
X136600000Y-129410000D01*
%TD*%
M02*
